<svg width="400" height="240" viewBox="0 0 400 240" fill="none" xmlns="http://www.w3.org/2000/svg">
<path d="M35.9602 145.204L41.6347 129.84L47.0419 145.204H35.9602ZM52.5463 160.689H57.747L44.2593 123.704H39.1195L25 160.689H30.2492L34.3927 149.351H48.5122L52.5463 160.689ZM77.2129 152.856C77.2129 155.875 74.7584 157.476 70.5784 157.476C67.2004 157.476 64.9282 156.53 63.6767 154.347L58.6826 155.22C60.6268 159.198 64.6852 161.089 70.384 161.089C78.1242 161.089 82.1705 156.809 82.1705 152.249C82.1705 146.392 76.7633 144.804 70.5298 143.555C67.5285 142.949 63.9926 141.845 63.9926 139.177C63.9926 137.286 65.8395 135.091 69.5577 135.091C73.276 135.091 75.6089 137.662 75.9613 138.68L80.3478 136.861C78.3429 133.029 74.3088 131.465 70.0924 131.465C63.5795 131.465 59.2658 134.666 59.2658 139.759C59.2658 145.556 64.2356 146.683 69.0596 147.738C73.203 148.624 77.225 149.642 77.225 152.831L77.2129 152.856ZM92.5353 123.704L87.6627 125.729V132.556H83.1912V136.485H87.6627V154.541C87.602 158.215 87.602 160.859 93.0699 160.859C94.8561 160.859 96.8246 160.507 97.6509 160.386V156.493C96.7031 156.784 95.4515 157.148 94.5524 157.148C92.5232 157.148 92.5231 155.73 92.5231 152.407V136.485H97.6387V132.556H92.5231V123.704H92.5353ZM101.928 132.556V160.677H106.655V147.751C106.655 145.337 106.594 142.488 107.846 140.451C109.377 137.953 111.661 137.007 116.291 136.982V132.108C114.383 132.168 109.328 132.29 106.643 137.589V132.556H101.916H101.928ZM144.262 123.704V128.264H165.32L144.25 155.875V160.677H171.468V156.239H149.961L170.934 128.312V123.704H144.262ZM201.092 132.556V160.677H205.819V144.731C205.819 142.645 205.819 140.511 207.909 138.438C209.404 136.958 211.202 136.303 213.292 136.303C215.868 136.303 218.493 137.492 219.331 140.16C219.635 141.105 219.635 141.93 219.635 144.792V160.689H224.349V144.028C224.349 141.651 224.349 139.941 223.863 138.268C222.503 133.636 218.201 131.841 214.604 131.841C212.94 131.841 208.456 132.253 205.819 136.849V132.569H201.092V132.556ZM274.533 153.874C273.537 155.802 271.69 157.548 268.032 157.548C264.849 157.548 259.514 155.548 259.514 146.283C259.514 143.785 259.964 134.957 267.741 134.957C271.665 134.957 273.476 137.092 274.302 138.935L278.737 137.092C276.003 132.556 271.082 131.501 267.571 131.501C258.603 131.501 254.265 138.704 254.265 146.647C254.265 153.523 258.02 161.186 267.984 161.186C273.755 161.186 276.963 158.409 278.725 155.633L274.545 153.886L274.533 153.874ZM178.261 143.7H193.194C192.781 136.352 188.528 135.103 185.697 135.103C181.651 135.103 178.795 138.062 178.261 143.7ZM197.083 155.293C195.466 158.033 192.356 161.162 186.232 161.162C177.908 161.162 173.121 155.523 173.121 146.065C173.121 135.515 180.108 131.465 186.049 131.465C191.214 131.465 196.171 134.315 197.836 141.372C198.371 143.749 198.371 145.883 198.371 147.071H178.139C178.018 151.764 179.986 157.706 186.645 157.597C189.355 157.548 191.274 156.324 192.489 154.396L197.083 155.281V155.293ZM232.005 143.7H246.938C246.525 136.352 242.272 135.103 239.441 135.103C235.395 135.103 232.539 138.062 232.005 143.7ZM250.839 155.293C249.223 158.033 246.112 161.162 239.976 161.162C231.664 161.162 226.877 155.523 226.877 146.065C226.877 135.515 233.852 131.465 239.793 131.465C244.97 131.465 249.915 134.315 251.58 141.372C252.114 143.749 252.115 145.883 252.115 147.071H231.883C231.762 151.764 233.742 157.706 240.389 157.597C243.098 157.548 245.018 156.324 246.233 154.396L250.826 155.281L250.839 155.293ZM304.558 160.677L299.637 160.701C299.637 160.701 299.212 158.713 299.078 156.554C297.656 158.034 295.008 161.089 289.649 161.089C284.29 161.089 280.123 157.839 280.123 153.098C280.123 151.607 280.536 150.127 281.374 148.878C282.99 146.502 285.967 144.598 294.351 143.943L298.811 143.591V142.876C298.811 139.965 298.811 135.091 292.517 135.091C288.568 135.091 287.219 137.007 286.769 138.729L282.419 136.91C282.48 136.764 282.565 136.607 282.65 136.449C284.315 133.369 287.608 131.465 292.346 131.465C294.959 131.465 298.337 132.12 300.536 133.842C303.671 136.219 303.586 140.887 303.586 140.887L303.781 155.305C303.781 155.305 303.939 159.489 304.546 160.665L304.558 160.677ZM298.094 152.928C298.811 151.376 298.859 150.734 298.859 146.623C297.025 146.914 294.534 147.278 291.484 147.92C286.259 149.06 285.36 151.012 285.36 152.977C285.36 155.232 287.146 157.136 290.645 157.136C293.926 157.136 296.709 155.827 298.082 152.916L298.094 152.928ZM140.921 160.677L135.999 160.701C135.999 160.701 135.574 158.713 135.441 156.554C134.007 158.034 131.358 161.089 126.011 161.089C120.665 161.089 116.473 157.839 116.473 153.098C116.473 151.607 116.886 150.127 117.724 148.878C119.34 146.502 122.33 144.598 130.714 143.943L135.173 143.591V142.876C135.173 139.965 135.173 135.091 128.891 135.091C124.93 135.091 123.593 137.007 123.132 138.729L118.781 136.91C118.854 136.764 118.927 136.607 119.012 136.449C120.689 133.369 123.97 131.465 128.721 131.465C131.321 131.465 134.699 132.12 136.911 133.842C140.046 136.219 139.985 140.887 139.985 140.887L140.167 155.305C140.167 155.305 140.337 159.489 140.945 160.665L140.921 160.677ZM134.444 152.928C135.161 151.376 135.222 150.734 135.222 146.623C133.375 146.914 130.896 147.278 127.846 147.92C122.609 149.06 121.71 151.012 121.71 152.977C121.71 155.232 123.496 157.136 127.008 157.136C130.276 157.136 133.071 155.827 134.432 152.916L134.444 152.928Z" fill="#1C2024"/>
<path d="M335.337 137.019C334.608 137.492 333.867 137.953 333.137 138.438C324.644 133.733 306.405 124.662 304.826 123.838C303.137 122.965 300.184 121.776 300.561 118.975C301.083 115.034 307.924 106.425 310.828 102.884C326.552 83.6758 333.599 77.7583 338.277 78.3767C343.259 79.0315 346.03 84.173 346.358 108.243C343.575 107.382 340.501 106.497 337.232 105.685C336.965 102.192 336.309 96.9055 336.066 95.0866C335.786 93.0251 335.385 92.249 334.559 92.1399C333.611 92.0186 331.327 94.2135 329.237 96.3477C328.289 97.3056 325.616 100.01 322.663 102.981C320.197 102.823 318.556 103.332 317.645 104.533C316.916 105.503 316.758 106.825 317.195 108.486C315.604 110.074 314.23 111.445 313.356 112.318C310.075 115.58 306.612 118.284 306.43 119.606C306.284 120.685 307.948 121.813 310.306 123.219C316.077 126.663 330.294 134.339 335.325 137.031L335.337 137.019ZM357.415 112.985C351.862 111.057 338.144 105.952 323.672 104.048C318.69 103.393 316.685 105.163 318.739 109.893C320.756 114.561 326.005 122.395 331.497 128.276C336.989 134.145 342.943 135.733 344.839 126.675C344.912 126.348 344.973 126.033 345.033 125.717C345.495 123.389 345.835 121.134 346.005 119.157C343.575 118.054 340.841 116.877 338.107 115.725C338.253 117.799 338.508 121.388 338.63 124.141C338.642 124.493 338.666 124.832 338.666 125.172C338.836 129.634 337.305 129.622 334.754 127.803C331.789 125.681 322.7 113.712 321.667 108.425C321.618 108.074 321.788 108.062 321.971 108.122C322.031 108.146 322.104 108.171 322.189 108.207C322.189 108.207 322.202 108.207 322.214 108.207C324.267 109.007 331.084 111.699 338.022 114.622C340.793 115.786 343.575 116.986 346.066 118.114C348.521 119.218 350.72 120.26 352.36 121.134C355.362 122.734 356.516 123.826 355.264 125.099C349.019 131.417 327.232 140.414 319.711 151.534C319.711 151.534 319.674 151.57 319.626 151.643C319.54 151.764 319.455 151.898 319.383 152.043C319.358 152.08 319.346 152.128 319.322 152.164C318.945 152.843 318.423 154.032 318.228 155.463C317.912 157.888 319.176 160.107 322.675 161.053C323.55 161.308 324.547 161.502 325.64 161.611C325.835 161.623 326.041 161.647 326.26 161.647C332.979 161.974 350.416 158.155 355.714 155.802C361.194 153.377 359.554 150.952 357.974 149.703C356.783 148.757 350.684 145.362 347.719 143.725C346.929 144.234 346.309 144.622 345.519 145.131C350.562 148.199 352.555 149.727 353.733 150.624C354.183 150.976 353.94 151.4 353.272 151.449C353.089 151.461 352.944 151.473 352.737 151.485C347.95 151.813 338.885 152.455 334.632 152.674C334.012 152.71 333.308 152.746 332.919 152.759C333.976 151.776 335.155 150.879 335.738 150.467C344.839 144.076 360.016 135.103 364.475 131.247C367.768 128.409 376.747 119.703 357.415 112.961V112.985Z" fill="#1C2024"/>
</svg>
