<svg width="400" height="240" viewBox="0 0 400 240" fill="none" xmlns="http://www.w3.org/2000/svg">
<path d="M234.976 148.377L258.043 148.112C262.931 148.112 266.931 151.988 266.931 156.775C266.931 161.548 262.93 165.411 258.043 165.411H234.976V148.377ZM177.85 176C197.245 176 214.325 166.335 224.342 151.701V176H258.195C269.188 176 278 167.51 278 156.775C278 151.25 275.633 146.253 271.843 142.719C275.633 139.166 278 134.188 278 128.662C278 117.927 269.052 109.201 258.045 109.201H249.937L238.87 120.013H258.045C262.932 120.013 266.933 123.889 266.933 128.663C266.933 133.432 262.932 137.298 258.045 137.298H218.051C211.642 152.825 196.065 163.765 177.852 163.765C153.91 163.765 134.534 144.849 134.534 121.485C134.534 98.1346 153.91 79.2061 177.852 79.2061C197.149 79.2061 213.486 91.5035 219.102 108.51L228.643 98.7636C219.811 80.0172 200.375 67 177.851 67C147.004 67 122 91.398 122 121.486C122 151.593 147.003 176 177.85 176ZM212.447 137.652L258.2 91.2765L258.279 91.199V76.3698L198.282 137.652L212.447 137.652Z" fill="#1C2024"/>
</svg>
