<svg width="400" height="240" viewBox="0 0 400 240" fill="none" xmlns="http://www.w3.org/2000/svg">
<path fill-rule="evenodd" clip-rule="evenodd" d="M284.289 159.028C288.537 160.348 297.038 161.458 303.762 161.458C321.662 161.458 333.333 152.334 333.333 137.328C333.333 123.761 325.915 118.594 314.044 113.422C305.443 109.57 301.488 107.543 301.488 102.064C301.488 96.6956 305.047 93.5503 313.058 93.5503C319.781 93.5503 325.32 95.58 328.188 97.201L331.45 83.4239C327.197 82.0045 320.078 80.585 313.058 80.585C296.543 80.585 285.674 88.3807 285.674 102.473C285.674 116.866 293.876 121.734 303.762 125.689C313.451 129.533 316.915 132.568 316.915 138.342C316.915 145.138 311.28 148.482 303.762 148.482C297.534 148.482 290.708 146.254 287.654 144.831L284.289 159.028ZM241.578 125.99H250.669C259.076 125.99 264.512 129.533 264.512 137.234C264.512 145.643 258.68 148.684 251.162 148.684H241.578V125.99ZM241.578 93.6553H250.766C258.085 93.6553 262.042 96.8945 262.042 103.588C262.042 110.685 256.504 114.234 250.074 114.234H241.578V93.6553ZM226.647 160.754H251.558C269.953 160.754 280.335 151.119 280.335 137.328C280.335 126.901 273.908 121.328 265.996 119.199C271.731 116.866 277.765 111.6 277.765 102.271C277.765 89.0933 267.876 81.5984 252.843 81.5984H226.647V160.754ZM180.87 93.7546H188.485C196.386 93.7546 200.639 98.3139 200.639 105.107C200.639 112.812 194.815 116.36 186.804 116.36H180.87V93.7546ZM184.824 128.014C189.773 135.912 198.166 151.119 202.816 160.754H220.516C215.573 150.41 205.684 132.769 200.545 125.587C208.55 122.847 216.165 116.156 216.165 105.309C216.165 89.4963 206.573 81.5984 190.465 81.5984H166.036V160.754H180.87V128.014H184.824ZM125.206 119.606H137.764C141.228 119.606 144.092 116.665 144.092 113.114C144.092 109.571 141.228 106.63 137.764 106.63H127.873L142.214 92.0325C144.687 89.4947 144.687 85.3385 142.214 82.8172C139.741 80.2794 135.787 80.2794 133.314 82.8172L118.779 97.7074L118.876 87.3683C118.876 83.6265 116.107 80.992 112.645 80.992C109.187 80.992 106.318 83.8308 106.318 87.3683V100.245C106.318 103.084 108.099 105.412 110.472 106.323C110.472 106.323 116.998 108.759 119.272 115.552C120.061 117.982 122.537 119.606 125.206 119.606ZM127.579 135.104L137.665 135.203C141.425 135.203 143.995 132.364 143.995 128.824C143.995 125.284 141.126 122.34 137.665 122.34H125.107C122.437 122.34 120.061 124.165 119.172 126.595C119.172 126.595 116.899 133.276 110.275 135.609C107.899 136.415 106.218 138.953 106.218 141.693V154.564C106.218 158.115 109.087 161.056 112.546 161.056C116.01 161.056 118.876 158.419 118.876 154.564V144.429L133.217 159.132C135.687 161.664 139.644 161.664 142.115 159.132C144.587 156.594 144.587 152.54 142.115 150.005L127.579 135.104ZM91.0959 154.564C90.9989 158.621 93.7681 160.954 97.2294 160.954C100.788 160.954 103.56 158.115 103.56 154.564V141.693C103.56 138.854 101.873 136.52 99.4032 135.609C99.4032 135.609 92.9761 133.276 90.7026 126.394C89.8137 123.964 87.4379 122.34 84.7711 122.34H72.2104C68.6493 122.34 65.8829 125.284 65.8829 128.824C65.8829 132.364 68.6493 135.303 72.2104 135.303H81.9992L67.7631 150.005C65.2876 152.435 65.2876 156.594 67.7631 159.132C70.1335 161.664 74.1902 161.664 76.6603 159.132L91.1955 144.225L91.0959 154.564ZM90.603 115.447C90.603 115.447 92.8764 108.861 99.5029 106.428C101.873 105.614 103.457 103.084 103.457 100.342V87.4705C103.457 83.933 100.688 80.992 97.2294 80.992C93.6684 80.992 90.8992 83.933 90.8992 87.4705V97.6079L76.5607 82.9167C74.0879 80.3816 70.1335 80.3816 67.6607 82.9167C65.1879 85.4436 65.1879 89.4947 67.6607 92.0325L82.2013 106.933L72.1107 106.834C68.1564 106.834 65.7832 109.673 65.7832 113.219C65.7832 116.767 68.6493 119.708 72.1107 119.708H84.6687C87.3408 119.708 89.7113 117.88 90.603 115.447Z" fill="#1C2024"/>
</svg>
