<svg width="400" height="240" viewBox="0 0 400 240" fill="none" xmlns="http://www.w3.org/2000/svg">
<path fill-rule="evenodd" clip-rule="evenodd" d="M140.88 81.1113H63.8887V158.102H140.88V81.1113ZM333.409 158.075V100.925V100.77H320.732V134.215C320.79 136.076 320.477 137.93 319.809 139.668C319.142 141.407 318.135 142.994 316.846 144.338C315.557 145.682 314.013 146.755 312.305 147.495C310.596 148.234 308.757 148.625 306.895 148.645C300.737 148.645 296.588 144.574 296.588 136.844V100.899H284.065V139.704C284.065 152.613 292.491 159.467 303.004 159.467C313.517 159.467 319.083 154.468 321.041 151.041V158.075H333.409ZM255.877 109.788C257.964 104.918 263.71 100.28 272.419 100.28L272.393 100.177C273.943 100.149 275.488 100.349 276.98 100.77V112.777C274.823 112.296 272.599 112.2 270.409 112.494C262.499 113.344 256.108 119.554 256.108 131.201V158.075H243.586V100.925H255.877V109.788ZM212.408 129.68C228.023 129.68 237.221 120.198 237.221 105.46H237.118C237.118 90.5922 227.92 81.1357 212.305 81.1357H179.658V158.024H192.928V129.68H212.408ZM222.922 100.565C223.503 102.128 223.74 103.797 223.617 105.46L223.72 105.511C223.853 107.186 223.62 108.87 223.037 110.446C222.453 112.021 221.534 113.451 220.342 114.636C219.15 115.82 217.715 116.731 216.136 117.304C214.556 117.878 212.871 118.1 211.197 117.957H192.928V93.04H211.197C212.859 92.9169 214.529 93.1537 216.092 93.7343C217.654 94.3149 219.073 95.2257 220.252 96.4045C221.431 97.5832 222.342 99.0023 222.922 100.565Z" fill="#1C2024"/>
</svg>
