<svg width="400" height="240" viewBox="0 0 400 240" fill="none" xmlns="http://www.w3.org/2000/svg">
<path fill-rule="evenodd" clip-rule="evenodd" d="M240.151 113.81C242.658 115.463 245.618 116.292 248.619 116.181V116.2C255.525 116.2 259.082 112.587 259.082 107.092C259.082 102.707 255.77 99.5834 251.291 98.0779C247.961 96.9865 246.982 96.2149 246.982 94.8412C246.982 93.4675 248.13 92.4137 250.557 92.4137C252.604 92.4452 254.605 93.0235 256.353 94.0885L256.88 88.4431C254.8 87.2343 252.415 86.6527 250.012 86.7683C243.915 86.7683 240.302 90.5319 240.264 95.2552C240.264 99.1317 242.917 102.256 247.791 103.968C251.272 105.229 252.232 106.057 252.232 107.732C252.232 109.406 250.84 110.46 248.318 110.46C245.108 110.434 242.005 109.305 239.53 107.261L240.151 113.81ZM158.858 116.181C155.969 116.11 153.165 115.19 150.796 113.534C148.427 111.879 146.599 109.562 145.54 106.873C144.482 104.185 144.239 101.243 144.843 98.4173C145.446 95.5914 146.87 93.0061 148.935 90.9848C151 88.9635 153.616 87.5959 156.454 87.053C159.292 86.51 162.227 86.8159 164.893 87.9322C167.558 89.0486 169.835 90.926 171.439 93.3296C173.044 95.7332 173.904 98.5563 173.912 101.446C173.92 103.41 173.534 105.356 172.776 107.169C172.019 108.981 170.905 110.623 169.501 111.997C168.097 113.371 166.432 114.449 164.603 115.168C162.775 115.887 160.821 116.231 158.858 116.181ZM158.858 92.7898C157.749 92.8089 156.655 93.0496 155.641 93.4975C154.627 93.9454 153.712 94.5917 152.951 95.3982C152.19 96.2047 151.598 97.1552 151.21 98.1938C150.822 99.2324 150.645 100.338 150.691 101.446C150.637 102.555 150.81 103.664 151.198 104.704C151.586 105.745 152.181 106.696 152.947 107.5C153.713 108.304 154.635 108.944 155.655 109.381C156.676 109.818 157.775 110.044 158.886 110.044C159.996 110.044 161.095 109.818 162.116 109.381C163.137 108.944 164.058 108.304 164.825 107.5C165.591 106.696 166.186 105.745 166.574 104.704C166.962 103.664 167.134 102.555 167.081 101.446C167.119 100.335 166.935 99.2284 166.54 98.1895C166.146 97.1506 165.548 96.2006 164.783 95.3949C164.018 94.5893 163.099 93.944 162.082 93.4967C161.065 93.0494 159.969 92.8091 158.858 92.7898ZM131.214 93.0518V98.6408H139.4V104.305H131.214V115.52H124.402V87.4629H141.15V93.0518H131.214ZM184.518 113.534C186.886 115.19 189.69 116.11 192.579 116.181C194.543 116.231 196.497 115.887 198.325 115.168C200.153 114.449 201.819 113.371 203.222 111.997C204.626 110.623 205.74 108.981 206.498 107.169C207.255 105.356 207.642 103.41 207.633 101.446C207.625 98.5563 206.765 95.7332 205.161 93.3296C203.557 90.926 201.28 89.0486 198.614 87.9322C195.949 86.8159 193.014 86.51 190.175 87.053C187.337 87.5959 184.722 88.9635 182.657 90.9848C180.592 93.0061 179.168 95.5914 178.564 98.4173C177.96 101.243 178.203 104.185 179.262 106.873C180.321 109.562 182.149 111.879 184.518 113.534ZM189.36 93.4973C190.375 93.0495 191.47 92.809 192.579 92.7898C193.69 92.8091 194.786 93.0494 195.804 93.4967C196.821 93.944 197.739 94.5893 198.505 95.3949C199.27 96.2006 199.867 97.1506 200.262 98.1895C200.656 99.2284 200.84 100.335 200.803 101.446C200.879 102.57 200.723 103.698 200.345 104.76C199.967 105.821 199.375 106.794 198.606 107.617C197.837 108.44 196.907 109.096 195.873 109.545C194.839 109.994 193.725 110.226 192.598 110.226C191.471 110.226 190.356 109.994 189.323 109.545C188.289 109.096 187.359 108.44 186.59 107.617C185.82 106.794 185.228 105.821 184.851 104.76C184.473 103.698 184.317 102.57 184.393 101.446C184.351 100.337 184.53 99.2311 184.92 98.1924C185.31 97.1537 185.904 96.2033 186.666 95.3971C187.429 94.5909 188.345 93.945 189.36 93.4973ZM221.54 115.52H212.131V87.4629H221.54C229.632 87.4629 236.594 92.7507 236.594 101.501C236.594 110.251 229.651 115.52 221.54 115.52ZM220.75 93.3153H218.642V109.668H220.75C225.624 109.668 229.763 106.939 229.763 101.501C229.763 96.0627 225.624 93.3153 220.75 93.3153ZM143.088 126.643C140.837 125.363 138.282 124.713 135.693 124.761C132.528 124.761 129.494 126.018 127.256 128.256C125.019 130.493 123.762 133.528 123.762 136.692C123.762 139.856 125.019 142.891 127.256 145.128C129.494 147.365 132.528 148.622 135.693 148.622C138.456 148.735 141.197 148.084 143.615 146.741L142.919 149.733C140.578 150.863 137.986 151.374 135.392 151.219C131.544 151.219 127.853 149.691 125.132 146.97C122.411 144.249 120.883 140.558 120.883 136.711C120.883 132.863 122.411 129.172 125.132 126.451C127.853 123.731 131.544 122.202 135.392 122.202C138.263 122.091 141.113 122.74 143.653 124.084L143.088 126.643ZM153.275 148.639C155.638 150.252 158.424 151.13 161.285 151.163C163.212 151.201 165.127 150.852 166.916 150.136C168.705 149.42 170.332 148.352 171.701 146.996C173.07 145.639 174.153 144.021 174.885 142.239C175.617 140.456 175.983 138.544 175.963 136.617C175.955 133.756 175.102 130.962 173.511 128.585C171.919 126.207 169.661 124.354 167.019 123.257C164.377 122.159 161.47 121.868 158.662 122.418C155.855 122.969 153.273 124.337 151.241 126.35C149.21 128.364 147.818 130.933 147.243 133.736C146.667 136.538 146.932 139.448 148.006 142.099C149.079 144.751 150.912 147.026 153.275 148.639ZM156.745 125.59C158.183 124.993 159.727 124.692 161.285 124.705C162.842 124.695 164.385 124.997 165.822 125.595C167.259 126.193 168.562 127.073 169.652 128.185C170.742 129.296 171.598 130.615 172.168 132.064C172.738 133.512 173.011 135.061 172.971 136.617C172.971 138.152 172.669 139.671 172.081 141.089C171.494 142.507 170.633 143.795 169.548 144.88C168.463 145.965 167.175 146.826 165.757 147.413C164.339 148.001 162.819 148.303 161.285 148.303C159.75 148.303 158.231 148.001 156.813 147.413C155.395 146.826 154.107 145.965 153.022 144.88C151.937 143.795 151.076 142.507 150.488 141.089C149.901 139.671 149.599 138.152 149.599 136.617C149.556 135.06 149.827 133.511 150.396 132.061C150.965 130.611 151.821 129.291 152.912 128.179C154.002 127.067 155.306 126.186 156.745 125.59ZM204.886 151.295L191.093 135.469C188.722 132.74 186.162 129.71 184.224 127.377V135.149V150.749H181.288V122.635H183.358L196.362 137.576C196.828 138.122 197.342 138.719 197.88 139.343L197.88 139.344L197.881 139.345L197.884 139.348C199.513 141.239 201.355 143.378 202.741 145.103V137.67V122.635H205.676V151.295H204.886ZM221.992 135.469L235.785 151.295H236.576V122.635H233.64V137.67V145.103C232.254 143.378 230.412 141.239 228.783 139.348L228.78 139.345L228.779 139.344L228.779 139.343C228.242 138.719 227.727 138.122 227.261 137.576L214.258 122.635H212.188V150.749H215.123V135.149V127.377C217.061 129.71 219.621 132.74 221.992 135.469ZM243.087 150.674V122.635H257.727V125.194H246.022V135.299H255.619V137.84H246.022V148.133H259.27V150.674H243.087ZM277.674 124.761C280.264 124.713 282.818 125.363 285.07 126.643L285.615 124.084C283.075 122.74 280.226 122.091 277.354 122.202C273.506 122.202 269.816 123.731 267.095 126.451C264.374 129.172 262.846 132.863 262.846 136.711C262.846 140.558 264.374 144.249 267.095 146.97C269.816 149.691 273.506 151.219 277.354 151.219C279.95 151.382 282.543 150.87 284.881 149.733L285.596 146.741C283.179 148.084 280.438 148.735 277.674 148.622C274.51 148.622 271.475 147.365 269.238 145.128C267 142.891 265.744 139.856 265.744 136.692C265.744 133.528 267 130.493 269.238 128.256C271.475 126.018 274.51 124.761 277.674 124.761ZM300.274 125.175V150.674H297.32V125.175H287.704V122.635H309.947V125.175H300.274ZM313.71 122.635V150.674H329.894V148.133H316.665V137.84H326.243V135.299H316.665V125.194H328.351V122.635H313.71ZM341.768 150.749H334.429V122.635H341.768C350.255 122.635 357.33 127.734 357.33 136.654C357.33 145.574 350.161 150.749 341.768 150.749ZM341.335 125.269H337.365V148.133H341.335C348.712 148.133 354.301 144.125 354.301 136.654C354.301 129.183 348.655 125.194 341.335 125.194V125.269ZM44.4443 131.367H72.2196V150.674H44.4443V131.367ZM87.274 109.484H44.4443V128.791H87.274V109.484ZM44.4443 87.5748H102.366V106.882H44.4443V87.5748Z" fill="#1C2024"/>
</svg>
