<svg width="400" height="240" viewBox="0 0 400 240" fill="none" xmlns="http://www.w3.org/2000/svg">
<path d="M210.687 130.565C210.687 138.413 200.837 137.947 200.837 137.947H190.988V123.766H200.837C210.973 123.699 210.687 130.565 210.687 130.565ZM190.988 102.139H198.493C206.287 102.548 205.992 108.301 205.992 108.301C205.992 115.451 197.375 115.567 197.375 115.567H190.988V102.139ZM208.865 118.356C208.865 118.356 215.606 115.508 215.546 107.952C215.546 107.952 216.571 95.5701 200.027 94.0599H181.668V145.969H202.711C202.711 145.969 220.294 146.021 220.294 131.322C220.294 131.322 220.71 121.32 208.865 118.356ZM161.353 83.8887H238.647V156.111H161.353V83.8887ZM121.555 130.565C121.555 138.413 111.706 137.947 111.706 137.947H101.856V123.766H111.706C121.842 123.699 121.555 130.565 121.555 130.565ZM101.856 102.139H109.362C117.156 102.548 116.861 108.301 116.861 108.301C116.861 115.451 108.244 115.567 108.244 115.567H101.856V102.139ZM119.734 118.356C119.734 118.356 126.476 115.508 126.416 107.952C126.416 107.952 127.44 95.5701 110.895 94.0599H92.536V145.969H113.581C113.581 145.969 131.163 146.021 131.163 131.322C131.163 131.322 131.578 121.32 119.734 118.356ZM72.2222 83.8887H149.516V156.111H72.2222V83.8887ZM312.01 97.7813V107.371C312.01 107.371 302.569 101.619 292.137 101.503C292.137 101.503 272.674 101.124 271.796 120.002C271.796 120.002 271.093 137.364 291.903 138.353C291.903 138.353 300.634 139.396 312.478 131.906V141.838C312.478 141.838 296.59 151.198 278.184 143.989C278.184 143.989 262.711 138.387 262.122 120.002C262.122 120.002 261.478 101.094 282.114 94.8173C282.114 94.8173 287.624 92.7255 297.527 93.6552C297.527 93.655 303.446 94.2355 312.01 97.7813ZM250.484 156.111H327.778V83.8887H250.484V156.111Z" fill="#1C2024"/>
</svg>
