<svg width="400" height="240" viewBox="0 0 400 240" fill="none" xmlns="http://www.w3.org/2000/svg">
<path fill-rule="evenodd" clip-rule="evenodd" d="M334.441 88.2184C334.379 87.7647 334.314 87.29 334.474 86.8253L334.569 86.9206C334.648 86.6665 334.742 86.6665 334.869 86.6665C335.126 86.7483 335.235 86.9969 335.356 87.2716C335.516 87.6368 335.697 88.0483 336.274 88.1752C336.858 88.3381 337.367 88.7037 337.71 89.2074C337.918 89.463 338.209 89.6372 338.531 89.6997C339.352 89.9221 339.92 89.3027 339.747 88.8104C340.027 88.8419 340.289 88.9695 340.487 89.1719C340.686 89.3743 340.809 89.6392 340.836 89.9221C340.867 90.1016 340.952 90.2675 341.079 90.3978C341.206 90.5282 341.368 90.617 341.546 90.6526C343.374 91.0786 344.02 92.2716 344.521 93.1966C345.084 94.237 345.463 94.9384 347.135 93.8287C347.908 94.861 346.819 96.9096 346.487 97.0049C346.726 97.5422 347.13 97.9878 347.64 98.2754C348.555 98.8231 348.938 99.4917 349.232 100.003C349.577 100.604 349.798 100.988 350.608 100.705C350.548 101.304 350.286 101.865 349.866 102.293C349.335 102.795 348.637 103.079 347.908 103.087C348.303 104.358 350.466 105.708 350.466 105.708C350.243 106.157 349.908 106.541 349.492 106.819C349.077 107.098 348.596 107.262 348.098 107.296C347.198 107.375 347.45 108.487 347.892 108.741C348.284 109.139 348.585 109.618 348.776 110.144C348.967 110.67 349.042 111.232 348.997 111.79C348.398 111.393 347.182 111.504 347.703 112.663C347.852 113.003 348.093 113.295 348.398 113.505C349.904 113.245 351.432 113.133 352.96 113.172C353.159 113.15 353.352 113.128 353.539 113.107C355.597 112.87 357.005 112.707 358.785 114.76C360.754 117.264 362.896 119.625 365.194 121.827C365.689 122.22 366.055 122.72 366.425 123.224C366.786 123.717 367.15 124.214 367.641 124.622C368.636 125.447 370.183 128.703 367.231 128.195C366.22 128.147 364.5 127.782 364.215 126.702C364.126 126.475 364.207 126.137 364.291 125.786C364.431 125.205 364.579 124.585 363.979 124.367C363.889 124.326 363.77 124.306 363.637 124.282C363.257 124.216 362.769 124.13 362.558 123.494C361.496 121.471 360.041 119.684 358.28 118.238C357.522 117.698 355.123 115.998 353.544 117.094C351.879 118.208 350.053 119.054 348.129 119.603L347.892 119.905C348.464 119.892 349.255 119.851 350.114 119.807C351.388 119.741 352.809 119.667 353.875 119.667C354.269 119.639 354.662 119.721 355.012 119.905C356.027 120.544 356.498 121.738 356.932 122.837C357.112 123.295 357.286 123.735 357.49 124.113C358.363 126.668 359.523 129.113 360.948 131.403C361.975 132.617 362.51 134.176 362.447 135.77C362.668 138.327 361.721 139.597 359.637 138.009C359.322 137.834 357.143 136.326 358.217 135.071C358.3 134.914 358.432 134.736 358.57 134.552C359.002 133.97 359.482 133.323 358.643 133.07C358.467 133.018 358.31 132.915 358.192 132.774C358.074 132.633 358 132.459 357.98 132.276C357.44 130.316 356.781 128.39 356.007 126.511C354.728 124.352 353.481 122.414 350.655 124.272C348.226 125.814 345.67 127.143 343.014 128.242C342.273 128.645 341.568 128.509 340.832 128.368C340.58 128.32 340.324 128.271 340.062 128.242C338.96 128.48 337.925 128.839 336.897 129.196C335.174 129.794 333.468 130.386 331.49 130.386C329.421 130.621 326.748 130.284 324.24 129.968C322.673 129.771 321.17 129.581 319.919 129.545C319.035 132.205 317.505 134.601 315.467 136.516C315.044 136.88 314.544 137.105 314.062 137.323C313.068 137.771 312.152 138.185 312.152 139.692C312.212 140.602 312.459 141.489 312.878 142.297C313.344 143.115 313.872 143.895 314.457 144.631C315.536 145.988 316.039 146.853 316.514 147.669C317.012 148.525 317.479 149.327 318.546 150.587C319.117 151.281 319.829 151.741 320.501 152.175C321.701 152.951 322.773 153.643 322.682 155.446H317.946C317.811 155.294 317.707 154.751 317.609 154.236C317.523 153.786 317.441 153.356 317.346 153.223C317.2 152.843 316.858 152.675 316.493 152.496C316.11 152.308 315.702 152.107 315.467 151.635C315.271 151.24 315.234 150.901 315.198 150.566C315.15 150.119 315.102 149.679 314.678 149.126C313.74 147.634 312.712 146.203 311.6 144.838C311.304 144.489 311.055 144.159 310.804 143.824C310.425 143.318 310.038 142.803 309.468 142.202C307.842 140.852 307.227 138.803 308.805 137.215C309.118 136.921 309.369 136.567 309.545 136.175C309.721 135.782 309.818 135.359 309.832 134.928C308.355 136.017 306.628 136.711 304.811 136.945C304.1 137.25 303.479 137.735 303.008 138.353C302.538 138.97 302.235 139.7 302.128 140.471C302.106 141.229 301.981 142.138 301.848 143.117C301.41 146.319 300.87 150.266 303.47 152.127C304.59 152.873 306.074 154.033 305.853 155.43H301.007C300.792 154.981 300.704 154.481 300.754 153.985C300.607 152.594 300.413 152.455 299.641 151.898C299.505 151.8 299.351 151.689 299.176 151.555C298.302 150.89 298.479 150.011 298.664 149.098C298.726 148.791 298.789 148.481 298.813 148.173C298.825 148.021 298.85 147.766 298.88 147.462C298.962 146.623 299.081 145.407 299.081 144.917C299.255 142.888 299.255 140.848 299.081 138.819C299.052 138.456 299.009 138.135 298.97 137.845C298.799 136.573 298.705 135.876 300.17 134.674C302.27 133.118 303.912 131.577 304.196 128.925C303.754 126.226 303.312 122.065 304.89 119.714C304.982 119.505 305.141 119.295 305.293 119.094C305.533 118.777 305.757 118.48 305.68 118.238C305.412 118.162 305.138 118.155 304.859 118.148C304.495 118.138 304.122 118.129 303.738 117.968C303.276 117.83 302.78 117.863 302.34 118.061C301.9 118.259 301.545 118.609 301.339 119.047C300.486 118.762 300.612 117.094 301.339 116.538C301.339 116.538 301.496 116.284 301.196 116.284C299.965 116.189 298.844 117.777 298.655 118.603C298.655 118.603 298.276 118.587 297.976 117.968C297.865 117.729 297.739 117.634 297.629 117.634C297.171 117.761 297.171 118.158 297.171 118.587C297.38 120.328 298.547 121.31 299.721 122.297C301.031 123.399 302.349 124.508 302.349 126.686C302.38 127.285 302.274 127.883 302.038 128.433C301.803 128.984 301.445 129.473 300.991 129.862C300.783 130.174 299.963 130.481 299.078 130.812C297.353 131.458 295.382 132.195 297.218 133.245C297.123 133.423 296.981 133.571 296.808 133.674C296.459 133.817 296.081 133.868 295.707 133.824C295.333 133.78 294.977 133.641 294.671 133.42C294.365 133.2 294.12 132.905 293.958 132.563C293.796 132.222 293.723 131.844 293.745 131.466C293.84 130.529 294.108 129.815 296.018 128.639C297.455 127.798 297.644 126.527 296.792 125.67C292.909 123.081 289.657 118.984 291.235 113.743C291.572 112.524 292.251 111.428 293.191 110.587C294.132 109.746 295.294 109.196 296.537 109.003C297.781 108.81 299.053 108.983 300.202 109.5C301.35 110.016 302.326 110.856 303.012 111.917C303.28 112.393 305.743 115.331 307.1 115.57C307.1 115.665 308.206 116.046 308.679 115.665C310.572 114.469 312.758 113.825 314.994 113.807C316.496 113.839 317.809 114.057 319.072 114.267C320.901 114.57 322.626 114.857 324.671 114.537C330.401 113.442 336.179 107.581 336.621 101.991C336.621 99.9428 333.464 102.325 333.464 102.325L332.485 103.119C332.333 103.26 332.261 103.505 332.184 103.77C332.052 104.22 331.904 104.726 331.317 104.866C331.131 104.979 330.918 105.04 330.701 105.04C330.484 105.04 330.271 104.979 330.085 104.866C329.779 104.735 329.497 104.648 329.242 104.568C328.222 104.25 327.616 104.061 327.465 101.801C327.474 100.96 327.884 100.48 328.342 99.944C328.706 99.5183 329.099 99.058 329.343 98.3548C329.526 97.7067 329.978 97.0788 330.419 96.465C330.854 95.8604 331.278 95.2694 331.427 94.6863C331.303 94.3693 331.284 94.0207 331.372 93.6919C331.46 93.363 331.651 93.0714 331.917 92.86C332.072 92.6881 332.227 92.5274 332.375 92.3736C332.992 91.7316 333.495 91.2081 333.495 90.4779C333.51 90.2026 333.289 89.8715 333.062 89.5303C332.803 89.1434 332.537 88.7435 332.595 88.3975C332.816 87.3605 333.469 88.1188 333.988 88.7217C334.177 88.9404 334.348 89.1387 334.474 89.2233C334.536 88.9108 334.49 88.5709 334.441 88.2184ZM40.7057 144.202V129.703C42.1149 128.162 44.0724 127.243 46.152 127.146C50.0197 127.146 52.4665 130.64 52.4665 137.04C52.4665 143.44 50.0354 146.823 46.0415 146.823C45.0141 146.778 44.0066 146.522 43.0809 146.072C42.1552 145.621 41.3308 144.985 40.6584 144.202H40.7057ZM33.3335 152.301H38.8587L39.6165 149.03C40.6189 150.255 41.8834 151.238 43.3157 151.903C44.748 152.568 46.3111 152.9 47.8885 152.873C54.7713 152.873 59.6967 146.521 59.6967 136.992C59.6967 127.146 54.6608 121.112 48.1095 121.112C46.696 121.067 45.292 121.36 44.0131 121.967C42.7342 122.575 41.6169 123.479 40.7531 124.605V109.963H33.6808V145.187C33.6808 146.648 33.5703 149.03 33.3335 152.301ZM70.7471 109.963H63.5643V152.301H70.7471V109.963ZM91.7271 143.916V137.453C84.9863 138.374 81.829 140.295 81.829 143.916C81.7994 144.349 81.864 144.784 82.0183 145.189C82.1726 145.594 82.4129 145.961 82.7225 146.263C83.0321 146.566 83.4035 146.796 83.8108 146.94C84.2181 147.083 84.6516 147.135 85.081 147.092C86.3434 147.036 87.5817 146.725 88.7231 146.18C89.8645 145.635 90.8859 144.865 91.7271 143.916ZM99.3676 152.301H92.5479L91.8533 149.617C89.2508 151.588 86.0811 152.653 82.8236 152.651C77.7246 152.651 74.7252 149.554 74.7252 144.488C74.7252 137.675 80.3925 134.07 91.9796 132.609V130.227C91.9796 128.02 90.4799 126.733 87.6857 126.733C86.3768 126.715 85.0841 127.026 83.924 127.635C82.7638 128.245 81.7726 129.136 81.0397 130.227L76.2249 127.146C77.4629 125.204 79.194 123.629 81.2394 122.585C83.2847 121.541 85.5701 121.065 87.8594 121.207C94.9159 121.207 98.9098 124.637 98.9098 130.227V148.156C98.956 149.548 99.109 150.934 99.3676 152.301ZM127.657 145.139C126.747 147.53 125.105 149.567 122.968 150.958C120.831 152.348 118.31 153.019 115.77 152.873C107.198 152.873 102.683 147.458 102.683 136.992C102.683 127.098 107.719 121.207 115.77 121.207C118.309 121.048 120.829 121.741 122.935 123.178C125.04 124.615 126.612 126.715 127.404 129.147L121.39 131.767C120.348 128.686 118.785 127.162 116.243 127.162C111.839 127.162 109.929 130.433 109.929 137.421C109.929 143.773 111.839 146.727 115.833 146.727C118.674 146.727 120.695 145.282 122.147 142.138L127.704 145.107L127.657 145.139ZM138.881 109.963H131.825V152.301H138.881V142.455L142.354 138.326L149.064 152.301H156.878L147.153 132.609L156.136 121.779H148.195L138.881 134.134V109.963ZM161.313 109.963H165.497V126.177C168.812 122.731 171.906 121.143 175.805 121.143C181.046 121.143 184.014 124.192 184.014 129.64V152.301H179.878V131.212C179.878 126.829 178.536 124.859 174.7 124.859C172.931 124.935 171.197 125.384 169.611 126.178C168.026 126.971 166.624 128.091 165.497 129.465V152.301H161.313V109.963ZM200.447 124.779C195.096 124.779 192.065 128.924 192.065 136.959C192.065 145.027 195.143 149.251 200.447 149.251C205.752 149.251 208.783 145.09 208.783 137.007C208.783 128.924 205.799 124.779 200.447 124.779ZM200.384 152.84C192.491 152.84 187.755 147.139 187.755 136.959C187.755 126.7 192.491 121.079 200.384 121.079C208.277 121.079 213.013 126.764 213.013 136.959C213.013 147.155 208.277 152.84 200.384 152.84ZM217.071 121.682H221.381V128.654C223.417 123.731 226.117 121.333 230.174 121.333C230.499 121.301 230.827 121.301 231.153 121.333V125.541H230.632C226.496 125.541 223.244 128.876 221.381 135.213V152.3H217.071V121.682ZM239.356 147.899C237.839 147.039 236.561 145.812 235.635 144.329V144.393L232.257 147.093C233.574 148.939 235.323 150.43 237.35 151.433C239.377 152.436 241.618 152.92 243.876 152.841C250.617 152.841 254.753 149.094 254.753 143.646C254.753 139.375 252.416 136.738 247.365 135.15C246.363 134.823 245.395 134.563 244.476 134.317L244.475 134.317L244.475 134.317C242.454 133.775 240.666 133.296 239.266 132.292C238.765 131.933 238.358 131.456 238.083 130.902C237.808 130.348 237.672 129.735 237.688 129.116C237.688 126.416 239.661 124.653 242.818 124.653C244.387 124.701 245.922 125.125 247.295 125.89C248.668 126.655 249.839 127.739 250.711 129.052L253.505 126.241C252.199 124.597 250.53 123.281 248.632 122.397C246.734 121.512 244.657 121.083 242.566 121.143C237.151 121.143 233.362 124.542 233.362 129.513C233.362 133.562 235.872 136.31 241.05 137.898C241.911 138.16 242.72 138.391 243.473 138.606C247.912 139.871 250.427 140.588 250.427 144.091C250.427 147.204 248.043 149.252 244.318 149.252C242.578 149.224 240.872 148.759 239.356 147.899ZM261.509 134.196C261.746 128.114 264.54 124.779 269.024 124.779C273.507 124.779 276.238 128.177 276.348 134.196H261.509ZM278.385 143.725C277.627 145.389 276.404 146.794 274.865 147.77C273.326 148.746 271.537 149.25 269.718 149.219C264.824 149.219 261.446 145.36 261.446 138.865V137.865H280.832V136.578C280.832 126.684 276.348 121.174 268.96 121.174C261.572 121.174 257.089 126.907 257.089 137.055C257.089 147.472 261.446 152.935 269.308 152.935C275.133 152.935 279.095 150.649 281.479 145.725L278.385 143.725Z" fill="#1C2024"/>
</svg>
