<svg width="400" height="240" viewBox="0 0 400 240" fill="none" xmlns="http://www.w3.org/2000/svg">
<path d="M190.219 143.71C190.219 149.068 188.054 152.11 177.311 152.11C175.899 152.11 174.672 152.027 173.449 151.863V80.997C173.449 75.6193 175.331 70 186.168 70C187.585 70 188.902 70.1208 190.219 70.4111V143.71ZM167.227 132.979C167.227 142.941 160.536 150.228 146.965 151.655C137.07 152.685 122.745 151.481 115.964 150.731C115.68 149.653 115.49 148.313 115.49 147.235C115.49 138.53 120.295 136.519 124.916 136.519C129.626 136.519 137.07 137.35 142.634 137.35C148.661 137.35 150.547 135.358 150.547 133.443C150.547 130.938 148.097 129.898 143.387 129.032L130.379 126.61C119.637 124.603 113.889 117.402 113.889 109.742C113.889 100.399 120.674 92.5983 134.057 91.1815C144.14 90.103 156.485 91.3073 163.271 92.1051C163.55 93.2271 163.645 94.3151 163.645 95.4371C163.645 104.151 158.935 106.033 154.314 106.033C150.926 106.033 145.458 105.404 139.241 105.404C132.924 105.404 130.285 107.101 130.285 109.147C130.285 111.318 132.829 112.189 136.696 112.89L149.135 115.1C161.764 117.349 167.227 124.356 167.227 132.979ZM235.266 171.139C236.682 171.86 239.507 172.682 243.184 172.774C249.401 172.89 252.794 170.607 255.339 165.147L288.889 92.6806C287.571 91.9747 284.458 91.1718 281.913 91.1428C277.672 91.051 271.829 91.8828 268.157 100.423L257.32 125.26L236.019 91.6747C234.607 91.2637 231.309 90.6882 228.859 90.6882C221.32 90.6882 217.078 93.3529 212.743 97.9324L192.106 119.897L208.691 145.262C211.804 149.9 215.856 152.264 222.357 152.264C226.693 152.264 230.271 151.307 231.967 150.514L211.989 121.256L226.125 106.637L249.401 142.099" fill="#1C2024"/>
</svg>
