<svg width="400" height="240" viewBox="0 0 400 240" fill="none" xmlns="http://www.w3.org/2000/svg">
<path d="M127.619 121.502C127.619 138.953 117.732 153.811 103.947 162.393C98.3663 165.687 91.9775 167.357 85.5002 167.214C70.2805 167.214 60.4962 159.924 56.7243 153.651C54.9286 150.663 53.0702 147.577 49.3723 145.416C47.7107 144.56 45.9267 143.966 44.0835 143.656C40.9151 142.838 38.0652 141.086 35.903 138.627C34.5324 137.213 30.846 131.959 30.5659 122.244C30.5659 121.991 30.5559 121.737 30.5559 121.484C30.5498 119.361 30.6793 117.24 30.9439 115.133L31.5694 115.254C32.1836 123.156 35.3031 131.337 43.6757 133.138C47.1404 133.881 51.1553 133.775 54.33 135.441C57.5223 137.122 60.2343 139.59 62.2106 142.611C69.8155 155.264 86.251 157.271 98.7494 151.284C120.011 141.107 127.939 111.628 116.335 91.1183C116.335 91.1183 116.737 90.8493 116.753 90.8437C123.794 99.5048 127.632 110.335 127.616 121.502H127.619ZM111.521 85.3384C107.338 87.8249 104.897 92.4633 103.469 97.1189C102.042 101.774 101.415 106.655 99.7529 111.236C97.7625 116.693 93.0809 123.139 86.6078 123.116C80.0678 123.092 76.8675 115.92 72.6095 112.039C68.3861 108.205 62.8548 106.139 57.1551 106.265C53.4884 106.265 48.4056 107.318 45.2949 104.864C40.5335 101.107 42.3902 94.1371 45.0033 89.7065C45.272 89.251 48.1882 84.6681 48.1925 84.6738L47.7888 84.1813C43.3503 87.5035 39.6797 91.745 37.0276 96.6165C34.6107 101.13 34.9477 108.145 38.4011 112.13C40.0593 113.892 42.2525 115.055 44.6396 115.439C45.7341 115.657 46.8441 115.788 47.9593 115.831C52.196 116.013 56.3745 115.318 60.3696 117.003C66.1987 119.464 68.8161 125.217 72.8667 129.671C79.6327 137.1 93.513 136.527 100.403 127.887C110.261 115.522 104.304 98.8667 111.873 85.6686L111.521 85.3384ZM83.0034 73.7971L83.16 73.2947C80.3307 72.4948 66.9622 71.6351 59.1214 78.938C57.9734 79.9501 57.0858 81.2242 56.5337 82.6525C55.9816 84.0807 55.7813 85.621 55.9496 87.1431C56.2274 88.5672 56.9677 89.8592 58.0554 90.8182C59.1432 91.7771 60.5173 92.349 61.9635 92.4448C64.4245 92.6028 67.9345 91.2322 70.3259 91.8414C72.7912 92.4705 74.1647 94.4901 76.0968 96.0144C77.9574 97.6238 80.3078 98.5545 82.7646 98.6546C88.1786 98.7186 90.8244 94.7719 93.7119 90.7454C100.127 81.8172 105.822 81.8343 106.594 81.8557L106.717 81.4201C104.183 80.5121 100.592 81.3248 98.0625 81.9895C95.1568 82.7813 92.4463 84.1662 90.101 86.0572C88.0551 87.6897 86.5563 89.8701 83.6716 89.9641C78.5719 90.132 80.2156 83.4341 71.5772 84.3834C70.2969 84.6839 68.9607 84.6477 67.6986 84.2781C67.1794 84.0439 66.7286 83.6806 66.3894 83.2226C66.0502 82.7647 65.8338 82.2275 65.7608 81.6621C65.3613 78.2804 70.1256 75.7712 72.7757 74.9798C73.0757 74.8887 73.3784 74.8119 73.6827 74.7407L73.7296 74.7307C76.768 74.034 79.8817 73.7203 82.9979 73.7971H83.0034ZM147.582 117.492H154.121L160.062 93.0739H160.248L166.112 117.492H172.652L180.461 87.2769H175.044L169.367 111.135H169.179L163.427 87.2769H157.039L151.287 111.135H151.1L145.348 87.2769H139.782L147.582 117.492ZM190.273 94.5698C192.606 94.5777 194.883 95.2772 196.818 96.58C198.754 97.8828 200.26 99.7305 201.147 101.89C202.034 104.049 202.262 106.423 201.802 108.712C201.342 111.001 200.216 113.102 198.564 114.75C196.912 116.398 194.809 117.519 192.521 117.972C190.233 118.425 187.863 118.188 185.709 117.293C183.555 116.398 181.714 114.884 180.419 112.942C179.124 111 178.433 108.718 178.433 106.383C178.381 104.814 178.652 103.251 179.229 101.792C179.806 100.332 180.677 99.0074 181.788 97.8993C182.898 96.7912 184.225 95.9238 185.684 95.351C187.144 94.7782 188.707 94.5123 190.273 94.5698ZM190.273 113.976C194.644 113.976 196.773 110.61 196.773 106.386C196.773 102.162 194.641 98.7941 190.273 98.7941C185.906 98.7941 183.775 102.16 183.775 106.386C183.775 110.612 185.907 113.976 190.273 113.976ZM215.708 94.5698C218.04 94.5777 220.318 95.2772 222.253 96.58C224.188 97.8828 225.695 99.7305 226.582 101.89C227.469 104.049 227.697 106.423 227.237 108.712C226.777 111.001 225.65 113.102 223.998 114.75C222.346 116.398 220.244 117.519 217.956 117.972C215.668 118.425 213.297 118.188 211.143 117.293C208.989 116.398 207.149 114.884 205.854 112.942C204.559 111 203.868 108.718 203.868 106.383C203.816 104.814 204.087 103.251 204.664 101.792C205.241 100.332 206.112 99.0074 207.223 97.8993C208.333 96.7912 209.66 95.9238 211.119 95.351C212.579 94.7782 214.141 94.5123 215.708 94.5698ZM215.708 113.976C220.079 113.976 222.208 110.61 222.208 106.386C222.208 102.162 220.076 98.7941 215.708 98.7941C211.341 98.7941 209.209 102.16 209.209 106.386C209.209 110.612 211.342 113.976 215.708 113.976ZM235.28 87.2769H230.019V117.492H235.28V87.2769ZM243.459 117.492H249.099L253.88 100.626H254.068L258.923 117.492H264.526L271.585 95.243H266.207L261.501 111.359H261.315L256.795 95.243H251.341L246.821 111.359H246.635L241.98 95.2373H236.416L243.459 117.492ZM283.097 94.5641C285.429 94.572 287.707 95.2715 289.642 96.5743C291.577 97.8771 293.083 99.7249 293.97 101.884C294.857 104.043 295.086 106.417 294.626 108.706C294.166 110.995 293.039 113.096 291.387 114.744C289.735 116.393 287.633 117.514 285.345 117.966C283.057 118.419 280.686 118.183 278.532 117.287C276.378 116.392 274.537 114.878 273.242 112.936C271.948 110.994 271.257 108.712 271.257 106.377C271.205 104.808 271.476 103.246 272.053 101.786C272.63 100.327 273.501 99.0017 274.611 97.8936C275.722 96.7855 277.048 95.9181 278.508 95.3453C279.968 94.7725 281.53 94.5066 283.097 94.5641ZM283.097 113.97C287.467 113.97 289.597 110.604 289.597 106.38C289.597 102.156 287.464 98.7884 283.097 98.7884C278.729 98.7884 276.598 102.154 276.598 106.38C276.598 110.606 278.731 113.97 283.097 113.97ZM313.276 112.1C313.222 112.821 313.325 113.545 313.576 114.223C313.827 114.9 314.221 115.516 314.732 116.027C315.243 116.538 315.857 116.933 316.534 117.184C317.211 117.436 317.934 117.538 318.654 117.485H324.817V113.294H320.522C320.233 113.336 319.937 113.31 319.66 113.217C319.382 113.125 319.13 112.968 318.923 112.761C318.716 112.554 318.56 112.301 318.467 112.023C318.375 111.745 318.348 111.45 318.39 111.159V99.4175H324.815V95.2359H318.39V89.4403H313.272V95.2359H311.219C306.139 95.2359 304.01 96.6592 302.852 102.191H302.666V95.2359H297.398V117.485H302.666V108.811C302.666 102.566 305.43 99.4175 310.099 99.4175H313.273V112.093L313.276 112.1ZM341.175 94.5186C339.265 94.4791 337.402 95.1186 335.919 96.3235C334.435 97.5284 333.426 99.2206 333.071 101.1H332.809V87.2712H327.542V117.486H332.809V105.93C332.809 101.93 334.788 98.7144 338.672 98.7144C341.516 98.7144 344.014 100.28 344.014 104.51V117.486H349.274V102.939C349.274 98.1536 346.25 94.5257 341.171 94.5257L341.175 94.5186ZM351.454 110.269C352.089 115.28 356.049 118.196 362.212 118.196C368.226 118.196 372.222 115.392 372.222 110.795C372.222 107.579 370.356 105.372 366.695 104.775L360.121 103.69C357.954 103.316 357.02 102.532 357.02 101.11C357.02 99.4274 358.626 98.4923 361.764 98.4923C364.827 98.4923 366.47 99.8388 366.769 102.193H371.848C371.476 97.3309 367.889 94.5271 361.764 94.5271C355.861 94.5271 352.089 97.1829 352.089 101.446C352.089 104.661 354.105 107.129 357.991 107.765L364.304 108.774C366.395 109.111 367.289 109.822 367.289 111.279C367.289 113.188 365.421 114.234 362.397 114.234C359.145 114.234 357.129 112.887 356.531 110.27H351.454V110.269ZM165.528 146.465V153.573H170.42V137.714H155.293V141.939H165.116V142.793C165.116 146.982 161.268 150.009 156.487 150.009C149.947 150.009 145.992 145.374 145.992 138.455C145.992 132.136 149.39 126.901 156.264 126.901C161.305 126.901 164.226 129.747 164.893 133.669H170.153C169.07 126.862 163.691 122.638 156.258 122.638C146.547 122.638 140.68 129.406 140.68 138.455C140.68 147.617 146.845 154.272 154.652 154.272C160.216 154.272 163.953 151.505 165.335 146.458L165.528 146.465ZM179.046 138.388V131.32H173.785V153.573H179.046V144.891C179.046 138.647 181.436 135.468 185.728 135.468H187.596V131.055H186.474C182.142 131.055 180.386 132.479 179.223 138.385L179.046 138.388ZM199.478 130.647C201.81 130.655 204.087 131.355 206.022 132.658C207.957 133.961 209.463 135.809 210.35 137.968C211.237 140.127 211.465 142.501 211.005 144.79C210.545 147.079 209.418 149.18 207.766 150.828C206.114 152.476 204.011 153.597 201.723 154.049C199.435 154.502 197.065 154.265 194.911 153.37C192.757 152.475 190.917 150.961 189.622 149.019C188.327 147.077 187.636 144.795 187.636 142.46C187.584 140.891 187.855 139.328 188.432 137.869C189.009 136.409 189.88 135.084 190.991 133.976C192.102 132.868 193.429 132 194.889 131.428C196.349 130.855 197.911 130.589 199.478 130.647ZM199.478 150.055C203.848 150.055 205.976 146.689 205.976 142.463C205.976 138.237 203.844 134.873 199.478 134.873C195.111 134.873 192.977 138.239 192.977 142.463C192.977 146.687 195.11 150.055 199.478 150.055ZM230.217 142.874C230.217 146.84 228.236 150.055 224.388 150.055C220.833 150.055 219.046 147.847 219.046 144.296V131.32H213.786V145.866C213.707 146.969 213.862 148.076 214.24 149.115C214.618 150.153 215.21 151.101 215.979 151.895C216.747 152.689 217.674 153.312 218.699 153.723C219.725 154.134 220.825 154.324 221.928 154.28C223.838 154.329 225.702 153.686 227.177 152.47C228.653 151.254 229.64 149.547 229.959 147.661H230.221V153.573H235.482V131.319H230.221V142.873L230.217 142.874ZM252.518 130.609C258.982 130.609 262.186 136.329 262.186 142.499C262.186 149.118 258.599 154.278 252.518 154.278C250.666 154.259 248.868 153.646 247.389 152.528C245.91 151.411 244.827 149.849 244.301 148.071H244.114V161.532H238.854V131.319H244.114V136.852H244.301C244.821 135.067 245.9 133.497 247.38 132.372C248.859 131.248 250.661 130.63 252.518 130.609ZM250.464 150.392C254.76 150.392 256.889 146.834 256.889 142.501C256.889 138.126 254.834 134.5 250.464 134.5C249.599 134.492 248.743 134.663 247.947 135C247.151 135.338 246.433 135.836 245.838 136.464C245.242 137.091 244.782 137.834 244.485 138.647C244.189 139.46 244.063 140.325 244.114 141.189V143.733C244.06 144.595 244.185 145.46 244.481 146.272C244.777 147.084 245.237 147.826 245.834 148.452C246.43 149.077 247.149 149.572 247.946 149.905C248.743 150.238 249.6 150.403 250.464 150.388" fill="#1C2024"/>
</svg>
