<svg width="400" height="240" viewBox="0 0 400 240" fill="none" xmlns="http://www.w3.org/2000/svg">
<path d="M174.859 174.441H185.728V185H174.859V174.441ZM210.533 185H237.692V174.441H210.533V185ZM150 142.048H203.551V131.489H150V142.048ZM192.71 185H203.579V148.83H192.71V185ZM185.701 103.484V86.7024L154.052 124.707H168.042L185.701 103.484V103.484ZM212.148 55L210.533 56.9417V73.7236L220.609 61.6226L212.148 55.0002V55ZM228.383 131.489V142.048H247V131.489H228.383ZM221.402 71.4363L210.533 84.4679V167.659H221.402V71.4366V71.4363ZM192.71 124.707H203.579V65.293L192.71 78.3246V124.707V124.707Z" fill="#1C2024"/>
</svg>
