<svg width="400" height="240" viewBox="0 0 400 240" fill="none" xmlns="http://www.w3.org/2000/svg">
<path fill-rule="evenodd" clip-rule="evenodd" d="M129.199 97.7773C125.941 97.7773 124.161 99.0485 124.161 102.712C124.161 106.432 125.536 107.704 129.199 107.704C132.573 107.704 134.295 106.375 134.295 102.712C134.295 99.0485 132.458 97.7773 129.199 97.7773ZM74.8997 107.057V142.879H67.0881V107.057H55.5557V100.354H86.929V107.057H74.8997ZM97.849 142.879H90.4766V100.354H97.849V116.775C99.8943 112.788 103.673 110.177 109.104 110.177C117.251 110.177 121.469 115.273 121.469 123.535V142.879H113.703V125.696C113.703 120.369 111.762 116.717 106.215 116.717C100.669 116.717 97.849 120.657 97.849 126.689V142.879ZM133.024 111.01H125.213V142.88H133.024V111.01ZM144.279 132.351H135.855L135.821 132.363C136.872 139.839 142.084 143.78 152.507 143.78C162.491 143.78 167.367 139.227 167.367 133.022C167.367 125.984 161.497 124.54 154.067 123.766C148.243 123.095 144.753 122.656 144.753 119.941C144.753 117.838 146.255 116.174 151.189 116.174C155.731 116.174 158.227 117.514 158.781 120.669H166.766C165.611 114.07 160.723 110.188 151.305 110.188C141.887 110.188 137.23 114.51 137.23 120.438C137.23 127.417 143.332 128.919 150.427 129.694C156.193 130.248 159.741 130.687 159.741 133.461C159.741 135.899 157.799 137.447 152.761 137.447C147.723 137.447 145.053 136.014 144.279 132.351ZM188.121 127.452V142.879H180.529V100.354H196.487C207.962 100.354 213.173 105.624 213.173 113.874C213.173 122.125 207.846 127.51 196.88 127.452H188.121ZM188.121 106.895V120.912H196.707C202.531 120.912 205.466 118.577 205.466 113.874C205.466 109.171 202.531 106.895 196.487 106.895H188.121ZM216.34 100.354V142.879H224.047V100.354H216.34ZM238.214 143.758C245.358 143.758 249.897 140.554 252.177 136.24L252.948 142.868H259.211V121.699C259.211 114.211 254.889 110.166 244.189 110.166C234.436 110.166 228.785 114.765 228.173 122.253H236.1C236.377 118.267 238.815 116.048 244.639 116.048C249.966 116.048 251.792 117.874 251.792 120.37C251.792 122.866 249.573 123.582 243.645 124.252C236.781 125.084 234.343 125.581 231.512 127.245C228.739 128.851 227.19 131.509 227.19 135.115C227.19 140.488 231.061 143.758 238.214 143.758ZM251.908 128.285V126.91C250.637 127.904 248.36 128.516 245.09 128.955C240.768 129.51 238.942 129.949 237.44 130.839C236.053 131.729 235.499 132.619 235.499 134.109C235.499 136.547 237.163 137.934 240.826 137.934C247.47 137.934 251.908 132.942 251.908 128.285ZM262.215 126.852V127.523L262.227 127.511C262.227 137.876 268.039 143.758 279.237 143.758C289.105 143.758 295.368 139.217 296.085 129.845V129.73H287.996V129.787C287.279 134.722 284.448 137.102 279.294 137.102C273.47 137.102 270.2 133.612 270.2 127.407V126.852C270.2 120.196 273.748 116.649 279.398 116.649C284.333 116.649 287.268 118.925 287.938 123.859V123.975H296.027V123.859C295.195 114.661 289.197 110.166 279.283 110.166C269.368 110.166 262.215 116.152 262.215 126.852ZM315.637 143.769C304.058 143.769 298.731 137.448 298.731 127.637V127.025C298.731 116.995 305.213 110.177 315.972 110.177C327.389 110.177 332.658 117.769 332.658 126.413V129.798H306.323C306.993 134.79 310.205 137.506 316.018 137.506C320.236 137.506 322.674 136.061 323.887 133.461H332.207C329.989 140.175 324.396 143.781 315.637 143.781V143.769ZM306.392 123.87H325.008C324.396 118.994 321.518 116.221 316.087 116.221C310.656 116.221 307.224 118.994 306.392 123.87ZM339.291 133.644C335.905 133.644 334.137 134.927 334.137 138.636C334.137 142.461 335.57 143.732 339.291 143.732C342.723 143.732 344.445 142.357 344.445 138.636C344.445 134.915 342.677 133.644 339.291 133.644Z" fill="#1C2024"/>
</svg>
