<svg width="400" height="240" viewBox="0 0 400 240" fill="none" xmlns="http://www.w3.org/2000/svg">
<path fill-rule="evenodd" clip-rule="evenodd" d="M43.2905 156.116H65.888C72.4995 156.116 86.2565 156.116 88.4366 142.766C89.9678 133.381 82.8024 126.616 76.2203 122.487H87.6099V83.8887H65.0563C58.4526 83.8887 44.7106 83.8887 42.5316 97.24C41.0015 106.626 48.1825 113.39 54.7801 117.519H43.2905V156.116ZM65.888 151.149H48.2592V122.489H65.0702C67.8648 123.543 85.3814 130.639 83.5324 141.965C82.4396 148.66 77.6576 151.149 65.888 151.149ZM82.6412 117.52H65.9491L65.9497 117.519C63.1523 116.47 45.5812 109.4 47.4352 98.0412C48.5275 91.3469 53.3039 88.8579 65.0563 88.8579H82.6412V117.52ZM136.706 99.277H131.738L131.737 135.097H136.752V120.291C136.743 119.481 136.897 118.678 137.204 117.929C137.511 117.181 137.966 116.501 138.54 115.931C139.115 115.361 139.798 114.913 140.549 114.612C141.3 114.31 142.105 114.163 142.914 114.179C143.676 114.165 144.434 114.307 145.139 114.597C145.844 114.887 146.483 115.317 147.016 115.863C147.548 116.409 147.963 117.059 148.235 117.771C148.507 118.483 148.631 119.244 148.597 120.006V135.098H153.612V119.05C153.612 113.653 150.078 109.498 144.394 109.498C140.669 109.498 138.09 111.406 137.039 113.462H136.706V99.277ZM112.096 127.694H107.368C107.701 132.518 111.043 135.719 117.398 135.721C123.656 135.721 127.524 132.425 127.524 127.697C127.524 121.542 122.537 120.698 118.351 119.99L118.35 119.989L118.35 119.989C115.324 119.477 112.718 119.036 112.718 116.711C112.718 114.848 114.485 113.511 117.303 113.511C120.312 113.511 121.936 114.896 122.222 116.998H126.808C126.426 112.22 122.509 109.497 117.494 109.497C111.762 109.497 108.037 112.602 108.037 116.805C108.037 122.536 112.675 123.402 116.726 124.159L116.726 124.159L116.727 124.159C119.866 124.745 122.653 125.266 122.653 127.934C122.653 130.131 120.837 131.611 117.541 131.611C114.294 131.611 112.43 130.273 112.096 127.694ZM233.67 135.098V131.564H234.005C234.892 132.869 236.09 133.932 237.491 134.658C238.892 135.383 240.452 135.748 242.029 135.719C249.242 135.719 254.161 130.418 254.161 122.68C254.161 114.943 249.241 109.498 242.316 109.498C240.701 109.465 239.103 109.837 237.668 110.58C236.233 111.322 235.007 112.411 234.101 113.749H233.814V99.277H228.799V135.098H233.67ZM241.407 114.084C245.944 114.084 249.049 117.617 249.049 122.632C249.049 127.839 245.944 131.182 241.311 131.182C236.535 131.182 233.669 127.361 233.669 122.632C233.669 117.235 237.013 114.084 241.407 114.084ZM169.521 109.497C162.548 109.497 157.628 114.942 157.628 122.68C157.628 130.418 162.595 135.72 169.759 135.72C171.343 135.747 172.909 135.382 174.317 134.657C175.726 133.931 176.933 132.869 177.831 131.565H178.118V135.099H183.036V110.119H178.021V113.749H177.688C176.793 112.411 175.576 111.321 174.148 110.578C172.721 109.835 171.13 109.463 169.521 109.497ZM170.428 114.083C174.822 114.083 178.166 117.235 178.165 122.632C178.165 127.361 175.254 131.182 170.476 131.182C165.891 131.182 162.738 127.838 162.738 122.632C162.738 117.618 165.891 114.083 170.428 114.083ZM191.542 110.118H186.239L193.597 135.098H199.565L205.44 116.566H205.726L211.553 135.098H217.572L224.975 110.118H219.626L214.514 129.175H214.181L208.258 110.118H202.957L196.986 129.175H196.653L191.542 110.118ZM263.021 110.118H258.197L258.196 135.099H263.21V122.776C263.21 118.143 265.646 114.943 269.897 114.943H272.238V110.071H270.041C268.617 110.06 267.221 110.472 266.031 111.254C264.841 112.036 263.909 113.153 263.354 114.465H263.021V110.118ZM342.421 123.301L349.49 135.098L355.174 135.098L345.86 119.575L354.553 110.119H348.296L338.839 120.77H338.552V99.277H333.537V135.098H338.552V127.552L342.421 123.301ZM287.141 109.497C279.452 109.497 273.912 115.131 273.912 122.631C273.912 130.131 279.404 135.719 287.094 135.719C294.736 135.719 300.276 130.082 300.276 122.631C300.276 115.181 294.831 109.497 287.141 109.497ZM287.094 114.083C291.822 114.083 295.166 117.665 295.166 122.631C295.166 127.551 291.822 131.181 287.094 131.181C282.411 131.181 279.022 127.6 279.022 122.631C279.022 117.712 282.366 114.083 287.094 114.083ZM303.145 122.631C303.145 115.131 308.685 109.497 316.375 109.497C324.064 109.497 329.508 115.181 329.508 122.631C329.508 130.082 323.967 135.719 316.326 135.719C308.638 135.719 303.145 130.131 303.145 122.631ZM324.4 122.631C324.4 117.665 321.056 114.083 316.327 114.083C311.599 114.083 308.255 117.712 308.255 122.631C308.255 127.6 311.644 131.181 316.327 131.181C321.056 131.181 324.4 127.551 324.4 122.631Z" fill="#1C2024"/>
</svg>
