<svg width="400" height="240" viewBox="0 0 400 240" fill="none" xmlns="http://www.w3.org/2000/svg">
<path fill-rule="evenodd" clip-rule="evenodd" d="M287.074 82.3132C290 82.3132 292.561 82.9229 295 84.1423L291.464 92.5561C290.244 91.9464 288.537 91.5806 287.196 91.5806C282.196 91.5806 278.172 95.6047 278.172 100.604V124.261C273.173 124.261 269.027 120.115 269.027 115.115V101.702C268.539 94.5072 264.515 88.776 264.515 88.776C264.515 88.776 272.319 84.2642 272.441 84.2642C272.441 84.2642 273.295 85.4836 274.392 87.6785C277.563 84.2642 282.074 82.3132 287.074 82.3132ZM199.643 124.017C194.643 124.017 190.497 119.871 190.497 114.871V69.6313H199.643V124.017ZM215.495 124.017C210.495 124.017 206.349 119.871 206.349 114.871V69.6313H215.495V124.017ZM230.128 105.848V105.97L250.37 94.2633L250.248 94.1414C247.999 92.1438 245.086 91.0568 242.078 91.0929C235.249 91.0929 229.762 96.5802 229.762 103.409L230.128 105.848ZM242.2 82.3132C251.345 82.3132 259.15 88.1663 262.076 96.3363L254.15 100.848L234.03 112.432L234.152 112.554C236.347 114.505 239.151 115.603 242.2 115.603C246.468 115.603 250.126 113.164 252.443 109.872C256.303 104.322 262.192 106.292 263.026 106.571L263.052 106.579C261.344 116.456 252.687 124.383 242.322 124.383C230.737 124.383 221.226 114.993 221.226 103.287C221.226 91.8245 230.615 82.3132 242.2 82.3132ZM122.576 82.3132C127.942 82.3132 132.819 84.63 136.112 88.4102C139.404 84.63 144.282 82.3132 149.647 82.3132C159.646 82.3132 167.816 90.4832 167.816 100.482V124.139C162.817 124.139 158.671 119.993 158.671 114.993V100.604C158.671 95.6047 154.647 91.5806 149.647 91.5806C144.769 91.5806 140.745 95.6047 140.623 100.482V124.261C135.624 124.261 131.478 120.115 131.478 115.115V100.604C131.478 95.7266 127.454 91.7026 122.454 91.7026C117.455 91.7026 113.431 95.7266 113.431 100.726V124.383C108.431 124.383 104.285 120.237 104.285 115.237V100.848C104.407 90.4832 112.577 82.3132 122.576 82.3132ZM174.767 100.726C174.767 96.5802 173.913 92.8 172.328 89.5076L180.742 84.63C183.181 89.2638 183.79 95.1169 183.79 100.726V124.017C178.791 124.017 174.767 119.993 174.767 114.993V100.726ZM130.096 135.341C130.096 134.306 130.884 133.429 131.909 133.429C132.935 133.429 133.802 134.306 133.802 135.341V147.769C135.458 145.06 138.06 142.83 142.396 142.83C148.468 142.83 151.937 146.972 151.937 152.947V166.968C151.937 167.214 151.889 167.457 151.796 167.684C151.703 167.911 151.566 168.118 151.394 168.292C151.222 168.465 151.018 168.603 150.793 168.697C150.568 168.792 150.327 168.84 150.084 168.84C149.841 168.84 149.6 168.792 149.375 168.697C149.15 168.603 148.946 168.465 148.774 168.292C148.602 168.118 148.465 167.911 148.372 167.684C148.279 167.457 148.231 167.214 148.231 166.968V153.903C148.231 149.203 145.708 146.255 141.292 146.255C136.956 146.255 133.802 149.442 133.802 154.142V166.968C133.802 167.214 133.754 167.457 133.661 167.684C133.568 167.911 133.431 168.118 133.259 168.292C133.087 168.465 132.883 168.603 132.658 168.697C132.433 168.792 132.192 168.84 131.949 168.84C131.706 168.84 131.465 168.792 131.24 168.697C131.015 168.603 130.811 168.465 130.639 168.292C130.467 168.118 130.33 167.911 130.237 167.684C130.144 167.457 130.096 167.214 130.096 166.968V135.341ZM154.46 156.134V156.054C154.46 148.884 159.979 142.83 167.549 142.83C175.039 142.83 180.559 148.805 180.559 155.895V155.974C180.559 163.144 174.96 169.198 167.47 169.198C159.979 169.278 154.46 163.303 154.46 156.134ZM176.695 156.134V156.054C176.695 150.637 172.674 146.176 167.391 146.176C161.951 146.176 158.245 150.637 158.245 155.974V156.054C158.245 161.471 162.187 165.853 167.47 165.853C172.989 165.853 176.695 161.471 176.695 156.134ZM183.397 145.06C183.397 144.814 183.445 144.571 183.538 144.344C183.631 144.117 183.768 143.91 183.94 143.737C184.112 143.563 184.316 143.425 184.541 143.331C184.766 143.237 185.007 143.188 185.25 143.188C185.493 143.188 185.734 143.237 185.959 143.331C186.184 143.425 186.388 143.563 186.56 143.737C186.732 143.91 186.869 144.117 186.962 144.344C187.055 144.571 187.103 144.814 187.103 145.06V147.689C188.759 145.22 190.967 142.909 195.146 142.909C199.246 142.909 201.848 145.14 203.188 147.928C205.002 145.14 207.604 142.909 212.019 142.909C217.775 142.909 221.323 146.813 221.323 153.106V167.048C221.323 167.544 221.128 168.02 220.78 168.371C220.433 168.722 219.962 168.92 219.47 168.92C218.979 168.92 218.507 168.722 218.16 168.371C217.812 168.02 217.617 167.544 217.617 167.048V153.903C217.617 149.044 215.173 146.255 211.152 146.255C207.367 146.255 204.292 149.123 204.292 154.062V166.968C204.292 168.003 203.503 168.88 202.4 168.88C201.375 168.88 200.586 168.083 200.586 166.968V153.823C200.586 149.123 198.142 146.335 194.121 146.335C190.178 146.335 187.182 149.681 187.182 154.301V167.048C187.182 167.544 186.987 168.02 186.639 168.371C186.292 168.722 185.82 168.92 185.329 168.92C184.838 168.92 184.366 168.722 184.019 168.371C183.671 168.02 183.476 167.544 183.476 167.048V145.06H183.397ZM236.541 169.278C229.681 169.278 224.083 163.941 224.083 156.134V156.054C224.083 148.805 229.129 142.909 236.068 142.909C243.479 142.909 247.658 149.044 247.658 155.735C247.658 156.771 246.87 157.488 245.924 157.488H227.867C228.419 162.985 232.204 166.012 236.698 166.012C239.774 166.012 242.06 164.817 243.874 163.064C244.189 162.825 244.504 162.586 244.899 162.586C245.845 162.586 246.554 163.303 246.554 164.18C246.554 164.658 246.397 165.056 246.003 165.375C243.637 167.764 240.799 169.278 236.541 169.278ZM243.952 154.62C243.558 149.999 240.956 146.016 235.989 146.016C231.652 146.016 228.341 149.681 227.867 154.62H243.952ZM250.812 165.693C250.497 165.375 250.103 164.817 250.103 164.18C250.103 163.303 250.733 162.586 251.68 162.586C251.995 162.586 252.468 162.746 252.783 163.064C254.912 165.056 256.805 165.853 259.959 165.853C262.955 165.853 265.163 164.259 265.163 161.869V161.79C265.163 159.24 262.245 158.285 258.934 157.329C254.991 156.213 250.655 154.859 250.655 150.159V150.079C250.655 145.698 254.203 142.83 259.17 142.83C262.324 142.83 265.005 144.104 266.976 145.777C267.449 146.176 267.843 146.654 267.843 147.371C267.843 148.247 267.213 148.884 266.266 148.884C265.557 148.884 265.163 148.566 265.005 148.406C263.27 146.893 261.141 145.937 259.012 145.937C256.095 145.937 254.203 147.53 254.203 149.601V149.681C254.203 152.071 257.278 153.027 260.668 154.062C264.532 155.257 268.711 156.771 268.711 161.312V161.391C268.711 166.171 264.768 168.959 259.801 168.959C255.701 169.039 252.468 167.526 250.812 165.693ZM170.621 86.4591C166.231 79.7524 158.549 75.7283 149.769 75.3625C149.769 75.3625 164.158 67.8022 177.693 80.3621C178.181 80.7279 178.547 81.2156 178.913 81.7034L170.621 86.4591Z" fill="#1C2024"/>
</svg>
