<svg width="400" height="240" viewBox="0 0 400 240" fill="none" xmlns="http://www.w3.org/2000/svg">
<path d="M61.6356 83.8932H41.2412V85.5444H47.8531V119.166C47.8531 129.363 45.0987 132.118 38.7626 132.118C34.9051 132.118 34.0777 129.088 34.0777 127.709C34.0777 124.127 33.8019 121.648 30.4924 121.648C27.1865 121.648 26.6384 124.954 26.6384 126.057C26.6384 130.742 28.8412 134.324 37.9353 134.324C48.9598 134.324 54.7444 130.742 54.7444 118.342V85.5409H61.3598V83.8932H61.6356ZM64.3935 126.605C63.2903 126.605 62.1872 126.888 61.6356 127.709C60.8082 128.536 60.5324 129.363 60.5324 130.466C60.5324 131.563 60.8082 132.393 61.6356 133.224C62.463 134.048 63.2903 134.32 64.3935 134.32C65.4931 134.32 66.3205 134.045 67.1479 133.224C67.9752 132.397 68.251 131.563 68.251 130.466C68.251 129.363 67.9752 128.536 67.1479 127.709C66.3205 126.881 65.4931 126.605 64.39 126.605H64.3935ZM109.588 126.605C108.485 126.605 107.657 126.888 106.83 127.709C106.006 128.536 105.73 129.363 105.73 130.466C105.73 131.563 106.006 132.393 106.83 133.224C107.657 134.048 108.485 134.32 109.588 134.32C110.691 134.32 111.791 134.045 112.346 133.224C113.17 132.393 113.445 131.563 113.445 130.466C113.445 129.363 113.17 128.536 112.342 127.709C111.515 126.881 110.691 126.605 109.584 126.605H109.588ZM95.2538 83.8932H75.411V85.5444H81.1991V124.13C81.1991 127.161 80.9233 127.984 80.6475 128.812C80.3717 129.918 79.5443 130.47 78.1654 131.022C77.3415 131.297 75.9626 131.57 74.032 131.57V133.224H95.5296V131.57C93.5991 131.57 92.2236 131.297 91.3927 131.022C90.0173 130.47 89.1899 129.643 88.9177 128.815C88.5498 127.847 88.3617 126.821 88.3626 125.785V112.551H93.5991C109.033 112.551 113.442 106.49 113.442 98.2202C113.442 89.6777 110.963 83.8896 95.2538 83.8896V83.8932ZM92.4959 110.624H88.3626V85.8202H91.9478C103.796 85.8202 106.551 90.7809 106.551 98.496C106.551 106.487 101.869 110.624 92.4959 110.624ZM177.104 128.536C176.74 127.472 176.554 126.355 176.552 125.23V85.5444H181.785V83.8932H169.116C168.84 84.4448 153.962 121.372 153.962 121.372L153.686 121.652C153.41 121.652 153.41 121.652 153.41 121.376C153.41 121.376 137.429 84.169 137.429 83.8932H123.363V85.5479H129.427V127.436C129.427 128.267 129.151 129.095 128.6 129.918C128.048 130.746 127.221 131.297 126.393 131.57C125.842 131.853 124.742 131.853 123.636 131.853V133.5H137.418V131.845C136.315 131.845 135.763 131.57 134.939 131.57C133.836 131.294 133.285 130.742 132.733 129.915C132.182 129.363 131.906 128.536 131.906 127.436L131.63 123.851V90.7773H132.457C132.457 90.7773 150.37 132.666 150.645 133.217H152.024L169.109 91.0567H169.661V125.23C169.661 126.609 169.385 127.709 169.109 128.812C168.833 129.915 168.01 130.466 166.906 131.018C165.752 131.401 164.541 131.586 163.325 131.566V133.221H182.616V131.566C181.398 131.586 180.186 131.401 179.031 131.018C178.207 130.466 177.379 129.639 177.104 128.536ZM203.283 97.1205C192.81 97.1205 186.473 104.008 186.473 115.86C186.473 133.497 200.252 134.6 203.007 134.6C208.795 134.6 219.819 131.018 219.819 115.588C219.819 103.46 212.652 97.1205 203.283 97.1205ZM203.007 132.393C195.292 132.393 193.913 128.539 193.913 116.136C193.913 106.49 194.464 99.3233 203.007 99.3233C212.101 99.3233 212.101 106.763 212.101 115.581C212.101 127.984 209.898 132.393 203.007 132.393ZM246.829 97.6721C240.762 97.6721 238.563 101.254 236.904 105.111H236.353C236.353 105.111 235.529 99.5991 235.253 98.2202H223.125V100.151H229.737V124.403C229.737 126.881 229.465 128.539 228.917 129.636C228.362 130.742 226.707 131.566 224.229 131.566H223.125V133.772H243.52V131.566H242.417C239.659 131.566 238.563 131.018 238.004 129.915C237.456 128.812 237.18 127.157 237.18 124.678V111.451C237.18 107.314 240.486 102.357 244.347 102.357C248.48 102.357 248.201 108.417 252.89 105.939C255.096 104.56 254.544 97.6721 246.829 97.6721ZM327.021 129.636C324.814 129.636 324.266 128.539 323.991 126.333V107.042C323.991 103.732 323.435 101.805 321.512 99.8714C319.581 97.9444 315.996 97.1135 310.763 97.1135C305.803 97.1135 302.221 97.9444 299.739 99.8714C297.536 101.53 296.436 103.181 296.436 105.663C296.436 106.759 296.712 107.59 297.26 107.866C297.812 108.417 298.639 108.693 299.463 108.693C301.39 108.693 302.497 107.597 303.045 105.111C303.327 103.181 303.872 102.081 304.703 100.975C305.799 99.8785 307.461 99.3233 309.384 99.3233C311.866 99.3233 313.793 99.8714 314.621 101.25C315.448 102.629 316 104.284 316 106.483V112.275C309.656 112.826 294.226 114.202 295.054 125.778C295.33 130.187 299.191 134.32 304.424 134.32C310.212 134.32 313.79 131.018 316.268 128.532C316.548 131.015 319.026 134.048 323.163 134.048C327.845 134.048 330.602 131.842 330.882 126.054H329.779C329.779 128.26 328.4 129.639 327.021 129.639V129.636ZM316.551 125.782V126.057L316.275 126.333C312.97 129.367 310.215 130.47 308.285 130.47C303.324 130.47 302.497 126.333 302.497 124.406C302.497 117.794 311.591 114.485 316.551 114.485V125.782ZM368.361 129.363C367.81 128.264 366.982 126.605 366.982 124.13V108.142C366.982 105.939 366.706 103.732 365.879 102.357C365.052 100.702 363.676 99.5991 362.297 98.7718C360.642 97.9444 358.991 97.6721 357.064 97.6721C349.897 97.6721 347.139 102.081 345.488 104.56H344.937L343.558 98.2202H332.533V100.151H338.049V124.403C338.049 126.333 337.77 127.709 337.494 128.539C337.214 129.636 336.398 130.466 335.567 130.742C335.015 131.018 333.912 131.294 332.533 131.294V133.497H349.894V131.294C348.239 131.018 346.86 130.742 346.312 129.915C345.76 129.088 345.212 127.433 345.212 124.954V115.584C345.212 111.73 345.212 107.866 346.591 105.663C347.967 103.181 350.721 101.805 353.479 101.805C356.237 101.805 357.612 102.633 358.443 104.284C359.267 105.663 359.539 109.796 359.539 112.551V124.127C359.539 126.054 359.822 127.433 359.539 128.264C359.267 129.36 358.991 130.191 358.16 130.739C357.612 131.294 356.506 131.294 355.406 131.566V133.772H372.222V131.566C370.288 130.742 368.913 130.187 368.361 129.363ZM289.545 95.4658C288.442 95.7416 287.89 96.8448 287.339 98.2237C287.063 99.6027 286.511 100.426 285.684 100.699C284.857 100.978 284.033 100.978 283.205 100.426C281.278 98.7718 277.969 96.8447 271.905 96.8447C261.984 96.8447 257.85 103.732 257.85 110.069C257.85 117.511 260.608 121.097 266.941 122.472C267.22 122.472 267.22 123.024 266.941 123.024C261.708 124.127 256.747 125.782 256.747 130.742C256.747 133.776 258.402 135.427 260.884 136.53C263.359 137.63 266.941 138.185 271.353 138.185C275.207 138.185 277.965 138.461 279.62 138.461C281.281 138.675 282.878 139.239 284.305 140.116C285.408 140.943 285.96 142.322 285.96 143.97C285.96 146.452 284.581 148.107 282.102 149.761C279.627 151.14 276.586 151.692 272.457 151.692C269.151 151.692 266.12 151.412 263.638 149.761C261.711 148.658 261.432 146.455 261.711 144.801C261.991 143.146 261.432 141.495 259.505 140.943C258.919 140.814 258.306 140.878 257.76 141.127C257.213 141.376 256.762 141.795 256.475 142.322C255.92 143.142 255.644 144.245 255.644 145.624C255.644 149.758 258.953 151.685 261.432 152.512C265.29 153.612 267.775 153.891 271.078 153.891C275.766 153.891 279.344 153.064 282.102 151.961C284.86 150.582 286.515 148.93 287.614 147C288.714 145.073 289.269 143.142 289.269 141.212C289.269 138.733 288.714 136.527 287.614 135.151C284.033 130.466 279.068 131.015 268.047 130.466C262.811 130.466 261.708 129.363 261.708 127.709C261.708 125.23 263.638 124.403 271.353 123.024C279.068 121.921 286.232 118.89 286.232 109.796C286.232 107.038 285.684 104.836 284.853 103.184C286.511 103.457 287.89 103.457 289.266 103.184C290.924 102.633 291.744 101.805 292.299 100.978C292.851 99.8749 293.123 98.7718 292.575 97.9444C292.851 95.7416 291.472 94.9142 289.545 95.4658ZM272.184 121.372C267.503 121.372 265.017 119.714 265.017 110.348C265.017 103.736 267.224 98.7718 272.184 98.7718C277.972 98.7718 279.624 103.181 279.624 110.072C279.624 119.994 276.593 121.372 272.184 121.372Z" fill="#1C2024"/>
</svg>
