<svg width="400" height="240" viewBox="0 0 400 240" fill="none" xmlns="http://www.w3.org/2000/svg">
<path fill-rule="evenodd" clip-rule="evenodd" d="M180.158 103.325C176.781 97.3744 171.633 92.6246 165.43 89.7378C159.227 86.8509 152.278 85.9706 145.551 87.2196C138.824 88.4686 132.654 91.7846 127.9 96.7057C123.147 101.627 120.047 107.908 119.032 114.674C116.894 128.467 122.455 142.983 134.73 150.178C140.753 153.614 147.688 155.112 154.592 154.466C161.495 153.821 168.033 151.064 173.314 146.572C185.25 136.027 187.821 117.112 180.158 103.325ZM160.426 107.584C160.44 107.634 160.453 107.533 160.465 107.445C160.471 107.391 160.478 107.342 160.483 107.338C160.339 107.202 161.054 106.568 161.159 106.495C161.843 106.017 162.073 106.174 162.392 106.392C162.531 106.487 162.687 106.593 162.905 106.664C162.912 106.688 162.954 106.841 162.933 106.861C162.559 107.5 160.583 109.699 160.393 107.697C160.393 107.657 160.405 107.618 160.426 107.584ZM159.109 117.369C159.136 117.297 159.157 116.958 159.177 116.635C159.197 116.309 159.217 115.999 159.24 116.001C159.254 115.997 159.257 115.987 159.25 115.973C159.233 115.968 159.227 115.956 159.235 115.938C159.284 115.815 159.302 115.682 159.289 115.55C159.284 115.543 159.28 115.549 159.274 115.543C159.27 115.401 159.285 115.26 159.319 115.122C159.355 115.119 159.359 115.093 159.331 115.045C159.354 114.925 159.369 114.805 159.377 114.683C159.387 114.663 159.391 114.641 159.39 114.619C159.389 114.596 159.382 114.575 159.37 114.556C159.369 114.552 159.369 114.548 159.37 114.544C159.37 114.542 159.37 114.54 159.37 114.539C159.372 114.53 159.373 114.524 159.357 114.521C159.372 114.499 159.382 114.474 159.387 114.447C159.391 114.421 159.39 114.394 159.384 114.368L159.377 114.355C159.383 114.36 159.426 114.356 159.409 114.351C159.382 114.348 159.377 114.332 159.393 114.303C159.398 114.301 159.402 114.299 159.406 114.296C159.41 114.294 159.413 114.29 159.415 114.286C159.401 114.158 159.408 114.029 159.434 113.903H159.451C159.466 113.792 159.473 113.68 159.471 113.568C159.461 113.541 159.465 113.522 159.485 113.511C159.499 113.513 159.503 113.49 159.502 113.485L159.494 113.468C159.492 113.452 159.492 113.436 159.494 113.421C159.503 113.389 159.51 113.357 159.516 113.324C159.517 113.324 159.519 113.324 159.521 113.323C159.522 113.322 159.523 113.322 159.524 113.321C159.526 113.32 159.527 113.319 159.528 113.318C159.529 113.317 159.53 113.316 159.531 113.315C159.532 113.312 159.533 113.309 159.534 113.306C159.535 113.303 159.534 113.3 159.534 113.297C159.512 113.295 159.506 113.283 159.516 113.258C159.514 113.239 159.52 113.227 159.524 113.219C159.528 113.21 159.531 113.205 159.522 113.198C159.536 113.005 159.562 112.814 159.598 112.625C159.619 112.621 159.619 112.612 159.598 112.596C159.61 112.58 159.606 112.568 159.602 112.557C159.599 112.549 159.597 112.542 159.6 112.536C159.669 112.346 159.72 112.151 159.754 111.953C159.889 111.543 160.161 111.193 160.523 110.959C160.496 110.972 160.676 110.89 160.661 110.883C160.711 110.897 160.773 110.863 160.836 110.829C160.889 110.8 160.942 110.772 160.987 110.772C161.088 110.75 161.192 110.741 161.295 110.744C161.568 110.791 161.666 110.836 161.708 111.047C161.704 111.07 161.701 111.092 161.7 111.115C161.699 111.115 161.698 111.116 161.696 111.116C161.695 111.116 161.694 111.116 161.693 111.116C161.687 111.118 161.682 111.12 161.684 111.125C161.693 111.127 161.701 111.13 161.709 111.136C161.694 111.136 161.674 111.254 161.699 111.228L161.71 111.279C161.715 111.269 161.723 111.261 161.733 111.256C161.744 111.251 161.755 111.251 161.766 111.254C161.774 111.266 161.772 111.282 161.769 111.295C161.768 111.304 161.767 111.311 161.769 111.316C161.785 111.304 161.788 111.306 161.778 111.32C161.767 111.344 161.766 111.37 161.774 111.395C161.797 111.409 161.801 111.423 161.786 111.436C161.802 111.438 161.811 111.43 161.814 111.411C161.821 111.416 161.826 111.423 161.83 111.431C161.834 111.439 161.836 111.448 161.836 111.457C161.854 111.482 161.864 111.513 161.865 111.544C161.866 111.576 161.859 111.607 161.842 111.634C161.842 111.633 161.842 111.632 161.842 111.634L161.842 111.634C161.844 111.638 161.848 111.652 161.853 111.668C161.857 111.683 161.862 111.699 161.865 111.71C161.869 111.721 161.871 111.728 161.871 111.728L161.861 111.758C161.858 111.759 161.854 111.76 161.851 111.762C161.849 111.764 161.847 111.766 161.844 111.768C161.84 111.772 161.836 111.777 161.833 111.783C161.831 111.789 161.829 111.795 161.829 111.802C161.83 111.808 161.831 111.815 161.834 111.82C161.823 111.829 161.815 111.841 161.811 111.854C161.806 111.867 161.806 111.881 161.808 111.894L161.807 111.911C161.824 111.901 161.828 111.906 161.819 111.928L161.807 111.93C161.821 111.942 161.815 111.95 161.79 111.952L161.776 111.95C161.755 111.98 161.757 111.998 161.781 112.006C161.815 112.028 161.784 112.07 161.756 112.107C161.732 112.139 161.711 112.167 161.735 112.177C161.74 112.189 161.742 112.202 161.742 112.215L161.752 112.205C161.758 112.211 161.765 112.215 161.773 112.217C161.781 112.218 161.789 112.218 161.797 112.215C161.789 112.223 161.778 112.228 161.767 112.229C161.763 112.232 161.761 112.236 161.758 112.24C161.756 112.243 161.755 112.246 161.754 112.249C161.752 112.252 161.751 112.256 161.75 112.259C161.746 112.271 161.745 112.282 161.746 112.294C161.748 112.306 161.752 112.317 161.758 112.327C161.764 112.337 161.772 112.346 161.781 112.353C161.767 112.355 161.764 112.363 161.773 112.376C161.767 112.388 161.718 112.472 161.718 112.471C161.721 112.478 161.722 112.485 161.721 112.492C161.72 112.496 161.718 112.5 161.716 112.504C161.715 112.507 161.713 112.509 161.711 112.511C161.713 112.515 161.719 112.52 161.726 112.527L161.726 112.527C161.746 112.547 161.773 112.574 161.726 112.574C161.696 112.579 161.709 112.622 161.717 112.646C161.718 112.652 161.72 112.656 161.72 112.659L161.742 112.664C161.739 112.691 161.727 112.716 161.708 112.736C161.689 112.756 161.665 112.769 161.638 112.774C161.624 112.79 161.623 112.804 161.634 112.816L161.627 112.822C161.625 112.836 161.68 112.834 161.717 112.832C161.732 112.832 161.744 112.831 161.749 112.832C161.742 112.833 161.736 112.836 161.731 112.84C161.727 112.842 161.724 112.845 161.722 112.848C161.72 112.85 161.719 112.852 161.717 112.854C161.714 112.86 161.712 112.866 161.712 112.873C161.711 112.879 161.712 112.886 161.715 112.892C161.714 112.898 161.712 112.901 161.708 112.902C161.705 112.903 161.702 112.903 161.698 112.905C161.697 112.905 161.697 112.906 161.696 112.906C161.696 112.907 161.695 112.907 161.695 112.908C161.699 112.919 161.705 112.929 161.712 112.939L161.695 112.939L161.693 112.924C161.691 112.923 161.688 112.925 161.684 112.927C161.678 112.93 161.671 112.934 161.673 112.924C161.67 112.927 161.667 112.929 161.663 112.931C161.66 112.932 161.656 112.933 161.652 112.933C161.648 112.933 161.644 112.932 161.64 112.931C161.636 112.929 161.633 112.927 161.63 112.924C161.626 112.926 161.625 112.927 161.626 112.929C161.627 112.93 161.628 112.931 161.629 112.933C161.63 112.934 161.632 112.935 161.633 112.937C161.633 112.938 161.633 112.939 161.633 112.941C161.64 112.944 161.643 112.96 161.644 112.968C161.645 112.97 161.645 112.971 161.645 112.972C161.643 112.955 161.709 113.118 161.649 113.087C161.617 113.006 161.642 113.212 161.658 113.175C161.656 113.184 161.654 113.191 161.653 113.195C161.653 113.199 161.652 113.202 161.652 113.203C161.652 113.199 161.646 113.19 161.616 113.21C161.597 113.22 161.6 113.266 161.604 113.309C161.606 113.338 161.608 113.366 161.603 113.379C161.603 113.411 161.6 113.444 161.596 113.476C161.588 113.508 161.573 113.807 161.635 113.729C161.652 113.74 161.65 113.75 161.63 113.758L161.609 113.792C161.588 113.801 161.59 113.804 161.614 113.803C161.61 113.804 161.608 113.806 161.605 113.808C161.604 113.809 161.604 113.81 161.603 113.811C161.603 113.811 161.602 113.812 161.602 113.812C161.599 113.816 161.598 113.822 161.599 113.827L161.612 113.817L161.642 113.83C161.644 113.836 161.64 113.838 161.636 113.84C161.633 113.841 161.63 113.842 161.628 113.844C161.63 113.846 161.631 113.848 161.632 113.851C161.633 113.853 161.633 113.856 161.633 113.858C161.633 113.86 161.633 113.862 161.632 113.863C161.632 113.864 161.631 113.865 161.631 113.866C161.63 113.868 161.628 113.87 161.626 113.872C161.636 113.881 161.636 113.889 161.624 113.896L161.645 113.924C161.67 113.94 161.673 113.955 161.654 113.969L161.65 113.979C161.553 114.108 161.548 114.207 161.635 114.277L161.649 114.283H161.664C161.662 114.314 161.655 114.357 161.647 114.407L161.647 114.407C161.623 114.562 161.589 114.772 161.66 114.81C161.554 114.781 161.656 115.313 161.667 115.311C161.672 115.393 161.662 115.475 161.638 115.553C161.583 115.566 161.57 115.589 161.601 115.621C161.591 115.87 161.601 116.119 161.632 116.367C161.587 116.325 161.534 116.293 161.476 116.274C161.472 116.305 161.515 116.37 161.558 116.433C161.604 116.5 161.648 116.567 161.633 116.59C161.608 116.624 161.573 116.597 161.539 116.572C161.486 116.531 161.437 116.494 161.437 116.708C161.396 116.97 161.388 117.235 161.414 117.499C161.42 117.51 161.423 117.523 161.42 117.536C161.418 117.549 161.412 117.56 161.403 117.569C161.407 117.587 161.413 117.604 161.421 117.62C161.414 117.67 161.427 117.784 161.443 117.918C161.474 118.183 161.514 118.525 161.417 118.586C161.37 119.454 159.972 120.057 159.265 119.989C159.263 119.934 159.203 119.842 159.136 119.737C159.051 119.606 158.954 119.454 158.94 119.331C158.901 118.672 158.958 118.011 159.109 117.369V117.369ZM146.37 117.562C146.406 117.477 146.863 117.369 147.107 117.311C147.168 117.297 147.215 117.285 147.24 117.278C147.234 117.239 147.211 117.235 147.171 117.267C147.164 117.219 147.196 117.22 147.232 117.221C147.241 117.221 147.249 117.221 147.258 117.221L147.262 117.202C147.268 117.204 147.275 117.204 147.281 117.202C147.284 117.2 147.287 117.198 147.29 117.196C147.292 117.194 147.294 117.192 147.296 117.189C147.312 117.197 147.329 117.201 147.347 117.202C147.365 117.203 147.383 117.2 147.399 117.194C147.416 117.187 147.431 117.178 147.444 117.165C147.449 117.16 147.453 117.155 147.458 117.149C147.464 117.14 147.469 117.131 147.473 117.121C147.509 117.099 147.54 117.089 147.571 117.08C147.596 117.072 147.621 117.065 147.648 117.05C147.677 117.081 147.708 117.074 147.741 117.029C147.736 117.023 147.73 117.021 147.724 117.018C147.716 117.014 147.709 117.011 147.707 117.001C147.723 117.001 147.731 116.995 147.74 116.989C147.745 116.985 147.751 116.981 147.758 116.978L147.766 116.954H147.775C147.777 117.008 147.799 117.018 147.838 116.985C147.841 116.981 147.842 116.976 147.843 116.972C147.843 116.967 147.843 116.962 147.841 116.958C147.826 116.952 147.872 116.936 147.916 116.92C147.945 116.91 147.973 116.901 147.982 116.894L147.996 116.888C148.465 116.614 148.952 117.047 149.039 117.476C149.046 117.49 149.057 117.506 149.068 117.523C149.081 117.542 149.096 117.563 149.107 117.587L149.119 117.588C149.106 117.607 149.1 117.629 149.103 117.652C149.105 117.675 149.116 117.695 149.134 117.71C149.126 117.737 149.059 118.064 149.109 118.052C149.118 118.157 149.046 118.264 148.979 118.363C148.943 118.417 148.908 118.469 148.888 118.517C148.84 118.522 148.756 118.618 148.698 118.685L148.698 118.685C148.679 118.705 148.664 118.723 148.652 118.735C148.602 118.773 148.54 118.831 148.474 118.893L148.474 118.893C148.326 119.033 148.153 119.197 148.014 119.217C147.97 119.266 147.919 119.308 147.864 119.342L147.87 119.353C147.84 119.363 147.815 119.384 147.797 119.41C147.794 119.413 147.79 119.418 147.787 119.423C147.783 119.429 147.779 119.435 147.775 119.437C147.768 119.434 147.76 119.433 147.752 119.433C147.745 119.433 147.737 119.436 147.73 119.439C147.723 119.443 147.717 119.448 147.713 119.454C147.708 119.461 147.705 119.468 147.703 119.476C147.699 119.486 147.692 119.494 147.683 119.501C147.653 119.538 147.616 119.569 147.574 119.591L147.586 119.598L147.584 119.604C147.568 119.603 147.553 119.606 147.54 119.613C147.533 119.616 147.527 119.621 147.522 119.626C147.516 119.631 147.511 119.637 147.507 119.644C147.516 119.713 147.33 119.947 147.186 120.127L147.186 120.127C147.115 120.216 147.054 120.291 147.032 120.329C146.931 120.329 146.888 120.615 146.934 120.676C146.909 120.732 146.875 120.753 146.852 120.767C146.82 120.786 146.81 120.792 146.873 120.861C146.823 121.143 146.728 121.415 146.593 121.668C146.632 121.676 146.671 121.731 146.618 121.75C146.618 121.759 146.61 121.775 146.6 121.793C146.579 121.834 146.551 121.889 146.596 121.907C146.582 121.962 146.574 122.018 146.572 122.075L146.555 122.065C146.538 122.08 146.547 122.101 146.572 122.096C146.57 122.109 146.564 122.122 146.554 122.131C146.556 122.133 146.559 122.135 146.561 122.137C146.567 122.141 146.574 122.144 146.582 122.145C146.582 122.421 146.56 122.695 146.516 122.967C146.516 122.97 146.516 122.973 146.516 122.977C146.514 123.004 146.513 123.038 146.537 123.05C146.455 123.149 146.474 123.31 146.493 123.468C146.508 123.59 146.522 123.709 146.491 123.798C146.461 124.04 146.452 124.285 146.464 124.529C146.46 124.53 146.464 124.558 146.469 124.599V124.599C146.483 124.705 146.507 124.891 146.444 124.894C146.373 125.224 146.337 125.559 146.337 125.896C146.288 125.907 146.138 126.106 145.971 126.33L145.971 126.33C145.781 126.583 145.569 126.866 145.451 126.945C145.44 126.946 145.428 126.95 145.418 126.955C145.408 126.961 145.4 126.969 145.393 126.979C145.389 126.981 145.378 126.986 145.362 126.994L145.342 127.003L145.342 127.003C145.243 127.048 145.044 127.14 145.043 127.151C145.023 127.16 145.002 127.164 144.98 127.164C144.971 127.206 144.85 127.227 144.749 127.245C144.699 127.254 144.655 127.262 144.631 127.271C144.538 127.286 144.444 127.285 144.352 127.268C144.298 127.249 144.245 127.226 144.195 127.198V127.157C144.189 127.154 144.185 127.152 144.182 127.152C144.178 127.151 144.175 127.152 144.171 127.155C144.15 127.146 144.13 127.133 144.113 127.118L144.108 127.097C143.925 126.641 143.943 126.195 143.961 125.75C143.975 125.393 143.989 125.036 143.899 124.676L143.902 124.673C144.014 124.185 144.027 123.68 143.94 123.187C143.916 123.183 143.924 123.165 143.931 123.146C143.938 123.13 143.944 123.114 143.934 123.105C143.952 123.09 143.944 123.06 143.938 123.039L143.937 123.033C143.896 123.029 143.888 122.892 143.944 122.888C143.992 122.703 144.031 122.515 144.06 122.326C143.996 122.276 144.055 121.817 144.117 121.341C144.187 120.801 144.26 120.239 144.158 120.233L144.158 120.202C144.157 119.896 144.157 119.172 144.353 118.996C143.98 118.428 145.513 117.75 145.817 117.629L145.816 117.635C145.835 117.627 145.872 117.619 145.85 117.652C145.852 117.652 145.854 117.653 145.856 117.653C145.858 117.653 145.86 117.653 145.862 117.652C145.866 117.652 145.869 117.65 145.872 117.647C145.875 117.644 145.877 117.641 145.878 117.637C145.879 117.633 145.879 117.629 145.878 117.625C145.955 117.607 146.033 117.592 146.111 117.58C146.171 117.571 146.231 117.569 146.291 117.566C146.317 117.565 146.344 117.563 146.37 117.562ZM136.798 124.293C136.793 124.293 136.788 124.293 136.783 124.295C136.778 124.296 136.773 124.299 136.769 124.302C136.765 124.305 136.761 124.309 136.759 124.314C136.756 124.318 136.755 124.323 136.754 124.329C136.667 124.332 136.691 124.642 136.711 124.6L136.708 124.617L136.694 124.626C136.691 124.632 136.689 124.639 136.688 124.646C136.688 124.65 136.688 124.653 136.688 124.657C136.688 124.66 136.689 124.664 136.69 124.668C136.756 124.706 136.76 124.721 136.704 124.713C136.63 124.971 136.571 125.232 136.527 125.497C136.518 125.561 136.504 125.622 136.491 125.68C136.447 125.873 136.412 126.027 136.596 126.132C136.595 126.136 136.595 126.14 136.595 126.144C136.596 126.149 136.596 126.155 136.598 126.16C136.599 126.163 136.599 126.166 136.601 126.169C136.605 126.181 136.612 126.192 136.621 126.201C136.634 126.394 136.606 126.588 136.538 126.769C136.5 126.812 136.49 126.87 136.479 126.932C136.466 127.008 136.452 127.089 136.385 127.155L136.372 127.156C136.372 127.154 136.37 127.154 136.367 127.156L136.372 127.156C136.376 127.162 136.357 127.2 136.342 127.23C136.331 127.25 136.323 127.266 136.324 127.268L136.317 127.272C136.289 127.321 136.266 127.373 136.249 127.427C136.247 127.429 136.246 127.431 136.245 127.434C136.244 127.437 136.244 127.44 136.244 127.444C136.244 127.449 136.245 127.455 136.249 127.46C136.25 127.465 136.244 127.539 136.235 127.651C136.203 128.026 136.135 128.828 136.208 128.883L136.199 128.884C136.176 128.888 136.143 128.894 136.159 128.861C136.145 128.846 136.101 128.882 136.119 128.89C136.119 128.893 136.118 128.895 136.116 128.897C136.115 128.9 136.112 128.902 136.11 128.904C136.11 128.905 136.109 128.907 136.108 128.908C136.112 128.929 136.104 128.941 136.084 128.943C136.083 128.946 136.082 128.948 136.082 128.951C136.083 128.952 136.083 128.954 136.084 128.955C136.086 128.958 136.091 128.96 136.097 128.96C136.104 129.011 136.107 129.062 136.104 129.114C136.107 129.125 136.107 129.137 136.103 129.149C136.099 129.16 136.092 129.17 136.083 129.177C136.097 129.235 136.083 129.274 136.044 129.294C135.928 129.534 135.876 129.8 135.894 130.065C135.832 130.108 135.822 130.345 135.816 130.484C135.814 130.529 135.813 130.563 135.81 130.578C135.763 130.718 135.769 130.878 135.774 131.04V131.04C135.781 131.238 135.788 131.44 135.7 131.615C135.651 131.735 135.629 131.864 135.636 131.994C135.627 132.192 135.605 132.389 135.57 132.584V132.577C135.517 132.662 135.522 132.775 135.527 132.887C135.531 132.985 135.535 133.082 135.499 133.158C135.48 133.165 135.48 133.174 135.499 133.185C135.484 133.247 135.475 133.31 135.471 133.373C135.47 133.429 135.464 133.486 135.454 133.541C135.355 133.946 135.303 134.361 135.302 134.777C135.099 135.422 135.003 136.095 135.017 136.77C134.881 137.08 134.782 137.404 134.722 137.737C134.697 137.773 134.675 137.811 134.655 137.85C134.643 137.859 134.632 137.87 134.624 137.883C134.616 137.896 134.611 137.91 134.609 137.925C134.748 137.876 134.22 138.231 134.219 138.231V138.237C134.256 138.412 133.285 138.251 133.217 138.23C133.197 138.215 133.182 138.193 133.174 138.168C133.078 138.066 132.976 137.969 132.869 137.878C132.877 137.684 132.791 137.486 132.705 137.29C132.616 137.084 132.528 136.88 132.549 136.684C132.536 136.551 132.518 136.419 132.492 136.289C132.465 136.216 132.45 136.141 132.446 136.064C132.418 135.989 132.404 135.909 132.404 135.829C132.305 135.7 132.299 135.499 132.293 135.3C132.288 135.128 132.283 134.958 132.219 134.837C132.19 134.821 132.184 134.801 132.2 134.777C132.161 133.988 132.024 133.207 131.791 132.453C131.754 132.445 131.716 132.442 131.678 132.445C131.675 132.458 131.664 132.473 131.649 132.471C131.695 132.169 131.702 131.861 131.67 131.557C131.658 131.435 131.641 131.314 131.621 131.193L131.608 131.185C131.603 131.16 131.608 131.134 131.604 131.108C131.559 131.106 131.538 130.773 131.53 130.645C131.529 130.633 131.528 130.623 131.528 130.615C131.527 130.609 131.527 130.604 131.527 130.601C131.441 130.241 131.386 129.874 131.364 129.504V129.486H131.338C131.34 129.42 131.336 129.354 131.326 129.288C131.088 129.05 131.078 128.182 131.068 127.289V127.289C131.056 126.242 131.044 125.161 130.665 125.021C130.636 124.921 130.628 124.815 130.62 124.708C130.611 124.586 130.602 124.463 130.561 124.347C130.533 124.364 130.528 124.331 130.523 124.297C130.518 124.27 130.514 124.243 130.498 124.24C130.496 124.229 130.502 124.223 130.508 124.217C130.514 124.211 130.52 124.205 130.514 124.193C130.57 124.187 130.233 121.89 130.196 121.739C130.193 121.74 130.19 121.742 130.186 121.745C130.183 121.749 130.179 121.754 130.175 121.759C130.163 121.775 130.15 121.791 130.137 121.779C130.238 121.591 130.137 121.433 130.039 121.28C129.95 121.14 129.863 121.004 129.939 120.853C129.935 120.853 129.933 120.829 129.93 120.789C129.913 120.587 129.863 119.98 129.435 120.096C129.438 120.102 129.439 120.108 129.439 120.114C129.439 120.121 129.438 120.127 129.435 120.133C129.419 120.212 129.396 120.289 129.366 120.364C129.362 120.364 129.305 120.407 129.307 120.421C129.329 120.426 129.32 120.449 129.312 120.461C129.405 120.534 129.172 120.584 129.142 120.586L129.142 120.584C129.137 120.586 129.138 120.586 129.142 120.586L129.142 120.587C129.139 120.605 129.135 120.629 129.149 120.641C129.147 120.644 129.144 120.645 129.141 120.646C129.136 120.648 129.131 120.65 129.129 120.658C129.133 120.686 129.132 120.714 129.124 120.74C129.131 120.738 129.131 120.733 129.13 120.727C129.13 120.724 129.13 120.72 129.131 120.717C129.214 120.717 129.005 120.912 129.037 120.878C129.009 121.057 128.956 121.231 128.879 121.395L128.847 121.423C128.829 121.43 128.815 121.442 128.805 121.459C128.796 121.476 128.793 121.495 128.796 121.514C128.798 121.518 128.798 121.523 128.798 121.528C128.797 121.531 128.797 121.533 128.795 121.536C128.795 121.538 128.794 121.539 128.793 121.541C128.79 121.545 128.787 121.548 128.783 121.551C128.78 121.552 128.778 121.553 128.775 121.554C128.773 121.555 128.772 121.555 128.77 121.555C128.64 121.637 128.621 121.896 128.605 122.112C128.593 122.261 128.584 122.39 128.54 122.422C128.498 122.464 128.503 122.509 128.507 122.553C128.51 122.585 128.514 122.617 128.498 122.646C128.477 122.656 128.46 122.672 128.448 122.692C128.436 122.712 128.43 122.734 128.431 122.757L128.394 122.789C128.393 122.792 128.39 122.796 128.388 122.8C128.376 122.822 128.356 122.857 128.367 122.877C128.48 123.022 127.897 124.159 127.773 124.308C128.11 125.109 126.415 125.246 126.083 124.985C125.558 124.57 125.719 124.213 125.894 123.828C126.019 123.552 126.151 123.261 126.041 122.924C126.16 122.737 126.237 122.526 126.269 122.307C126.261 122.31 126.256 122.308 126.25 122.306C126.246 122.305 126.242 122.304 126.237 122.304C126.351 121.824 126.522 121.36 126.746 120.92C126.707 120.905 126.83 120.617 126.976 120.277C127.176 119.809 127.419 119.241 127.338 119.152C127.415 118.898 127.498 118.528 127.595 118.097L127.595 118.097C127.957 116.479 128.511 114.008 129.641 113.632L129.638 113.63C130.841 113.131 131.188 114.252 131.463 115.143C131.477 115.186 131.49 115.229 131.503 115.271C131.772 115.349 131.793 116.175 131.813 116.975V116.975C131.831 117.671 131.849 118.347 132.028 118.493L132.027 118.494H132.029L132.028 118.493C132.044 118.481 132.064 118.476 132.083 118.478C132.103 118.48 132.122 118.489 132.135 118.505C132.127 118.839 132.154 119.174 132.214 119.503C132.212 119.503 132.21 119.504 132.209 119.505C132.206 119.505 132.204 119.506 132.201 119.507C132.185 119.511 132.179 119.513 132.191 119.54C132.215 119.526 132.203 119.55 132.196 119.564C132.193 119.569 132.191 119.572 132.191 119.573C132.24 120.034 132.318 120.491 132.425 120.942C132.466 120.953 132.499 121.127 132.535 121.318V121.318C132.575 121.524 132.618 121.748 132.677 121.808C132.608 121.866 132.695 122.101 132.791 122.36C132.911 122.682 133.044 123.039 132.907 123.139C133.081 123.489 133.169 123.876 133.163 124.267C133.287 124.24 133.231 125.481 133.23 125.513C133.262 125.52 133.277 125.508 133.29 125.498C133.303 125.487 133.315 125.478 133.343 125.491L133.344 125.502C133.35 125.555 133.37 125.745 133.292 125.742C133.319 126.323 133.375 126.903 133.46 127.479C133.618 127.543 133.62 127.738 133.622 127.928V127.928C133.623 128.008 133.624 128.087 133.636 128.155C133.702 128.127 133.702 128.127 133.735 128.164C133.74 128.17 133.745 128.176 133.752 128.183C133.697 128.368 133.862 128.161 133.845 128.172C133.841 128.138 133.845 128.105 133.856 128.073C133.872 128.073 133.881 128.063 133.896 128.062C133.951 127.176 134.097 126.304 134.243 125.431L134.243 125.431C134.344 124.828 134.445 124.225 134.516 123.618C134.464 122.452 134.691 121.29 135.18 120.23C134.696 119.534 135.395 117.757 135.86 116.578C135.992 116.243 136.105 115.956 136.166 115.755C136.426 114.909 136.653 114.061 136.872 113.202C136.921 113.009 136.965 112.724 137.015 112.401C137.148 111.544 137.321 110.423 137.737 110.072C137.525 109.733 137.93 108.967 138.215 108.426L138.215 108.426C138.311 108.245 138.393 108.089 138.435 107.983C138.775 107.109 139.084 106.22 139.394 105.332C139.583 104.789 139.772 104.246 139.968 103.707C140.012 103.586 140.089 103.313 140.192 102.953L140.192 102.953L140.192 102.953C140.594 101.535 141.379 98.764 142.014 98.6017C142.038 98.4285 142.158 98.3052 142.275 98.1842C142.37 98.0872 142.463 97.9918 142.503 97.8733L142.531 97.8655C142.538 97.8488 142.548 97.8339 142.561 97.8216C142.574 97.8093 142.59 97.8 142.607 97.7942C142.347 97.1787 144.871 96.9524 145.328 97.5749C145.66 97.876 145.7 98.2106 145.74 98.5332C145.77 98.7824 145.8 99.0244 145.962 99.2385C145.88 99.3427 145.831 99.5053 145.782 99.672C145.735 99.8276 145.688 99.9868 145.611 100.106C145.606 100.111 145.602 100.117 145.599 100.124C145.597 100.131 145.596 100.138 145.596 100.145C145.576 100.161 145.561 100.183 145.553 100.208C145.525 100.23 145.504 100.259 145.492 100.292C145.48 100.325 145.477 100.361 145.484 100.396C145.465 100.379 145.45 100.378 145.438 100.395C145.368 100.408 145.361 100.494 145.355 100.571C145.349 100.642 145.344 100.706 145.292 100.7C145.243 100.756 145.189 100.808 145.131 100.855C145.115 100.855 145.099 100.861 145.087 100.872C145.074 100.882 145.066 100.896 145.062 100.912C145.046 100.92 145.046 100.921 145.049 100.924C145.052 100.927 145.057 100.934 145.047 100.958C145.056 100.928 144.822 101.14 144.827 101.19C144.756 101.24 144.677 101.279 144.594 101.304C144.517 101.424 144.425 101.534 144.319 101.63C144.308 101.637 144.3 101.647 144.294 101.659C144.288 101.67 144.286 101.683 144.287 101.696C144.162 101.681 143.9 102.113 143.699 102.444C143.595 102.615 143.508 102.759 143.464 102.8L143.471 102.81L143.469 102.812C143.435 102.834 143.368 102.877 143.422 102.913C143.398 102.92 143.378 102.935 143.364 102.955C143.35 102.976 143.344 103 143.347 103.025C143.296 103.001 143.295 103.075 143.294 103.129C143.293 103.148 143.293 103.165 143.291 103.173C143.127 103.199 142.909 103.727 142.865 103.883C142.861 103.996 142.788 104.093 142.714 104.191C142.628 104.305 142.541 104.421 142.559 104.564L142.574 104.576C142.533 104.623 142.488 104.757 142.44 104.898C142.371 105.101 142.297 105.32 142.223 105.324L142.225 105.359C142.157 105.476 142.104 105.601 142.066 105.731C142.053 105.739 142.051 105.754 142.05 105.769C142.049 105.787 142.048 105.803 142.022 105.799C141.881 106.037 141.775 106.294 141.708 106.563C141.831 106.607 141.548 107.242 141.474 107.261C141.448 107.313 141.3 107.62 141.292 107.655C141.3 107.663 140.702 109.594 140.92 108.771C140.864 108.973 140.747 109.214 140.623 109.469C140.396 109.933 140.147 110.444 140.204 110.856C140.077 111.196 140.012 111.556 140.01 111.919C139.704 112.776 139.439 113.62 139.174 114.464C138.95 115.175 138.727 115.885 138.481 116.601C138.47 116.639 138.458 116.677 138.444 116.715C138.281 116.979 138.179 117.277 138.145 117.585C138.156 117.741 138.093 117.902 138.029 118.064C137.969 118.22 137.907 118.377 137.91 118.532C137.887 118.544 137.889 118.555 137.914 118.563C137.87 118.583 137.868 118.607 137.91 118.635C137.844 118.626 137.805 118.895 137.781 119.066C137.773 119.119 137.767 119.163 137.762 119.185C137.529 119.806 137.393 120.459 137.357 121.121C137.343 121.148 137.348 121.162 137.37 121.161C137.518 121.195 137.31 121.379 137.262 121.394C137.278 121.388 137.191 121.931 137.132 122.3L137.132 122.301L137.132 122.303C137.105 122.469 137.085 122.6 137.082 122.628C137.059 123.193 136.963 123.753 136.798 124.293ZM141.683 125.256L141.664 125.254C141.529 125.715 141.476 126.197 141.507 126.676L141.524 126.681C141.531 126.858 141.514 127.035 141.473 127.208C141.511 127.244 141.51 127.299 141.508 127.352C141.507 127.385 141.506 127.418 141.516 127.445C141.517 127.575 141.491 127.704 141.439 127.823C141.4 128.02 141.396 128.276 141.392 128.498V128.499C141.389 128.734 141.385 128.934 141.343 128.99C141.323 128.99 141.305 128.982 141.29 128.97C141.275 128.957 141.264 128.94 141.26 128.922C141.22 128.956 141.182 128.99 141.143 129.023C140.518 129.572 140.048 129.984 139.208 129.697C139.208 129.669 139.055 129.195 139.047 129.187C139.175 128.336 139.205 127.473 139.136 126.615L139.111 126.605C139.184 126.217 139.229 125.825 139.247 125.431C139.262 125.393 139.261 125.35 139.261 125.307C139.26 125.268 139.259 125.23 139.269 125.197L139.275 125.2C139.263 125.065 139.259 124.93 139.262 124.795C139.365 124.367 139.403 123.926 139.373 123.488C139.241 123.418 139.326 122.995 139.408 122.587C139.476 122.25 139.541 121.923 139.481 121.815L139.49 121.795C139.565 121.786 139.635 121.563 139.718 121.298C139.831 120.94 139.967 120.508 140.169 120.435C140.186 120.328 140.333 120.258 140.416 120.226C140.407 120.22 140.4 120.213 140.393 120.205C141.157 119.12 141.577 119.782 141.891 120.276C142.026 120.489 142.142 120.67 142.256 120.668C142.261 120.712 142.23 120.715 142.191 120.719C142.127 120.727 142.042 120.736 142.068 120.94C142.233 122.39 142.102 123.858 141.683 125.256ZM142.061 116.479C142.029 116.479 141.999 116.507 141.971 116.532C141.951 116.551 141.933 116.568 141.916 116.573C141.915 116.594 141.888 116.597 141.861 116.6C141.831 116.604 141.802 116.607 141.817 116.638C141.792 116.646 141.768 116.655 141.745 116.667C141.744 116.673 141.74 116.677 141.736 116.68C141.732 116.683 141.728 116.685 141.724 116.687C141.712 116.693 141.701 116.699 141.708 116.715C141.69 116.72 141.67 116.719 141.653 116.712L141.662 116.695C141.641 116.693 141.62 116.699 141.604 116.712C141.587 116.724 141.576 116.743 141.573 116.764C141.536 116.794 141.478 116.778 141.431 116.765C141.407 116.758 141.386 116.752 141.37 116.753L141.373 116.737C141.351 116.735 141.333 116.738 141.315 116.742C141.29 116.747 141.265 116.751 141.231 116.742C141.208 116.715 141.179 116.719 141.144 116.754C141.142 116.748 141.138 116.742 141.134 116.737C141.129 116.732 141.124 116.728 141.118 116.726C141.123 116.721 141.128 116.716 141.132 116.711C141.136 116.706 141.14 116.702 141.143 116.698C141.105 116.644 141.067 116.64 141.031 116.636C140.982 116.63 140.936 116.625 140.894 116.499C140.873 116.497 140.853 116.487 140.839 116.471C140.824 116.456 140.816 116.435 140.815 116.414C140.814 116.437 140.803 116.441 140.784 116.427C140.744 116.283 140.725 116.135 140.727 115.986C140.751 114.802 142.066 114.372 142.97 114.145C142.972 114.147 142.973 114.15 142.974 114.153C142.975 114.157 142.976 114.162 142.976 114.167C143.028 114.135 143.154 114.531 143.154 114.544C143.186 114.604 143.22 114.663 143.257 114.72C143.259 114.776 143.253 114.832 143.247 114.887C143.24 114.95 143.233 115.012 143.238 115.069C143.243 115.07 143.248 115.072 143.251 115.076C143.253 115.078 143.254 115.079 143.255 115.081C143.256 115.084 143.257 115.087 143.257 115.09C143.219 115.125 143.221 115.158 143.265 115.188L143.235 115.19C143.137 115.33 143.062 115.484 143.01 115.646C142.991 115.646 142.611 116.074 142.612 116.08C142.594 116.074 142.571 116.09 142.588 116.109C142.571 116.119 142.541 116.144 142.507 116.171C142.439 116.226 142.356 116.294 142.32 116.295L142.311 116.311C142.215 116.345 142.129 116.403 142.06 116.479H142.061ZM176.862 114.654C176.798 114.761 176.727 114.864 176.651 114.963L176.663 114.96C176.663 114.967 176.662 114.973 176.659 114.979C176.657 114.985 176.653 114.99 176.648 114.994C176.645 114.997 176.642 114.999 176.639 115.001C176.636 115.002 176.634 115.003 176.631 115.004C176.625 115.006 176.619 115.007 176.612 115.006C176.606 115.02 176.606 115.054 176.607 115.088V115.088C176.609 115.151 176.61 115.213 176.564 115.144C176.593 115.202 176.237 115.611 176.151 115.65C175.813 116.006 172.753 117.642 172.447 117.236C172.42 117.252 172.241 117.325 172.046 117.405C171.78 117.514 171.481 117.636 171.491 117.645C170.768 118.05 170.021 118.413 169.254 118.73L169.254 118.716C169.137 118.843 168.979 118.924 168.808 118.944C168.792 118.997 168.713 119.021 168.64 119.042C168.573 119.062 168.511 119.08 168.507 119.118C168.488 119.116 168.469 119.12 168.452 119.13C168.435 119.14 168.423 119.156 168.416 119.174C168.358 119.184 168.306 119.213 168.265 119.255C167.848 119.508 167.411 119.725 166.958 119.905C166.795 119.977 166.646 120.075 166.515 120.195C166.482 120.19 166.448 120.194 166.417 120.208C166.387 120.222 166.361 120.244 166.344 120.272C166.071 120.36 165.819 120.503 165.604 120.692C165.569 120.697 165.537 120.715 165.515 120.743C165.417 120.786 165.321 120.835 165.228 120.889C165.241 121.02 163.166 122.168 161.92 122.857C161.466 123.109 161.122 123.299 161.029 123.357C160.682 123.482 160.366 123.679 160.101 123.934C160.089 123.925 160.056 123.948 160.028 123.969C160.019 123.976 160.011 123.982 160.004 123.987C159.998 123.99 159.993 123.993 159.989 123.995C159.988 124.037 159.762 124.163 159.72 124.187L159.714 124.19C159.714 124.249 159.61 124.282 159.5 124.317C159.366 124.36 159.222 124.405 159.238 124.504C159.23 124.502 158.306 125.061 158.316 125.087C158.303 125.098 158.289 125.106 158.275 125.114C158.251 125.129 158.228 125.143 158.212 125.168C158.054 125.246 157.908 125.345 157.778 125.464C157.727 125.5 157.678 125.537 157.63 125.576V125.564C157.607 125.576 157.586 125.59 157.566 125.606C157.566 125.609 157.565 125.613 157.563 125.615C157.561 125.618 157.559 125.62 157.556 125.622C157.553 125.624 157.55 125.625 157.547 125.625C157.544 125.626 157.54 125.626 157.537 125.625L157.523 125.636C157.522 125.636 157.52 125.636 157.519 125.636C157.517 125.636 157.515 125.637 157.513 125.637C157.508 125.639 157.505 125.641 157.501 125.644C157.5 125.646 157.498 125.647 157.497 125.649C157.494 125.654 157.492 125.659 157.492 125.665C157.487 125.667 157.482 125.67 157.479 125.674C157.476 125.677 157.474 125.68 157.472 125.683C157.47 125.687 157.468 125.692 157.468 125.696C157.467 125.701 157.467 125.705 157.468 125.71C157.46 125.71 157.453 125.711 157.446 125.713C157.439 125.715 157.432 125.718 157.425 125.723C157.413 125.731 157.403 125.743 157.398 125.757C157.346 125.805 157.278 125.851 157.208 125.899C157.092 125.978 156.971 126.061 156.911 126.158C156.883 126.164 156.883 126.15 156.864 126.136L156.831 126.189L156.842 126.194C156.83 126.225 156.808 126.253 156.78 126.271C156.729 126.286 156.713 126.313 156.735 126.353C156.749 126.478 156.736 126.605 156.696 126.724C156.704 126.724 156.76 127.31 156.666 127.373C156.671 127.368 156.66 127.56 156.647 127.782L156.647 127.783V127.783C156.63 128.062 156.611 128.388 156.619 128.432C156.627 128.438 156.633 128.445 156.637 128.453C156.642 128.461 156.645 128.471 156.645 128.48C156.646 128.489 156.645 128.499 156.641 128.508C156.64 128.511 156.639 128.514 156.637 128.517C156.634 128.522 156.63 128.527 156.626 128.531C156.651 128.537 156.675 128.547 156.698 128.559C156.598 128.61 156.615 128.866 156.631 129.115C156.641 129.264 156.651 129.41 156.636 129.508C156.634 129.508 156.632 129.509 156.63 129.51C156.628 129.511 156.627 129.512 156.625 129.513C156.621 129.515 156.618 129.519 156.615 129.523C156.61 129.531 156.609 129.54 156.611 129.549C156.601 129.574 156.61 129.589 156.636 129.593C156.622 129.589 156.632 129.725 156.646 129.757C156.643 129.775 156.633 129.793 156.619 129.805C156.582 129.887 156.606 130.017 156.628 130.137C156.648 130.246 156.667 130.347 156.636 130.395C156.626 130.405 156.619 130.417 156.614 130.431C156.609 130.444 156.607 130.458 156.607 130.472C156.574 130.485 156.579 130.498 156.621 130.511C156.627 130.488 156.637 130.487 156.649 130.508C156.652 130.523 156.663 130.532 156.673 130.54C156.683 130.548 156.691 130.554 156.687 130.565L156.677 130.586C156.668 130.595 156.661 130.605 156.657 130.616C156.653 130.627 156.651 130.64 156.652 130.652C156.653 130.657 156.654 130.662 156.655 130.666C156.657 130.673 156.66 130.68 156.664 130.685C156.67 130.696 156.679 130.704 156.689 130.711C156.67 130.708 156.651 130.71 156.633 130.716C156.615 130.722 156.599 130.732 156.585 130.745C156.621 130.771 156.615 130.801 156.566 130.834C156.568 130.845 156.568 130.854 156.565 130.86C156.556 130.855 156.548 130.858 156.54 130.873L156.538 130.873V130.876L156.54 130.873C156.552 130.872 156.561 130.868 156.565 130.86C156.59 130.875 156.617 130.956 156.621 130.972C156.629 130.972 156.635 130.967 156.642 130.97C156.634 130.998 156.638 131.029 156.653 131.055C156.656 131.091 156.657 131.127 156.656 131.163C156.637 131.273 156.625 131.384 156.621 131.495C156.62 131.497 156.62 131.5 156.62 131.502C156.62 131.504 156.62 131.506 156.621 131.508C156.622 131.51 156.623 131.511 156.625 131.513C156.627 131.514 156.629 131.515 156.631 131.515C156.628 131.57 156.617 131.562 156.611 131.559C156.606 131.555 156.606 131.555 156.622 131.615C156.622 131.62 156.623 131.625 156.626 131.629C156.629 131.633 156.632 131.636 156.637 131.637C156.604 131.7 156.595 131.772 156.611 131.841C156.608 131.858 156.613 131.888 156.617 131.921C156.626 131.983 156.637 132.056 156.607 132.077C156.583 132.074 156.571 132.084 156.572 132.107C156.648 132.166 156.61 132.269 156.573 132.344V132.402C156.568 132.426 156.573 132.433 156.577 132.44C156.584 132.45 156.591 132.459 156.568 132.519C156.56 132.531 156.575 132.565 156.594 132.609C156.635 132.706 156.697 132.85 156.585 132.907C156.619 132.886 156.572 133.223 156.563 133.216C156.571 133.223 156.576 133.233 156.582 133.244C156.592 133.262 156.602 133.282 156.626 133.295C156.611 133.32 156.594 133.343 156.575 133.365L156.595 133.379C156.746 133.488 156.67 133.526 156.594 133.563C156.559 133.581 156.523 133.599 156.511 133.624C156.512 133.646 156.508 133.668 156.499 133.688C156.5 133.769 156.494 133.85 156.483 133.93C156.463 133.978 156.479 133.988 156.496 133.999C156.508 134.006 156.522 134.015 156.523 134.038C156.51 134.034 156.508 134.035 156.524 134.041L156.523 134.038C156.577 134.053 156.8 134.138 156.64 134.181C156.56 134.205 156.545 134.295 156.528 134.403C156.513 134.49 156.497 134.589 156.444 134.675C156.445 134.679 156.446 134.692 156.449 134.71C156.461 134.787 156.49 134.97 156.495 135.093C156.582 135.128 156.574 135.19 156.565 135.251C156.562 135.278 156.558 135.304 156.563 135.328C156.62 135.374 156.632 135.364 156.643 135.355C156.651 135.349 156.658 135.342 156.679 135.354C156.685 135.388 156.685 135.423 156.679 135.457C156.682 135.458 156.683 135.458 156.685 135.458C156.686 135.457 156.688 135.457 156.691 135.459C156.661 135.539 156.468 136.13 156.588 136.089C156.501 136.148 156.344 136.261 156.488 136.367C156.499 136.362 156.515 136.354 156.532 136.345C156.579 136.321 156.636 136.292 156.632 136.309C156.593 136.406 156.617 136.422 156.65 136.444C156.669 136.457 156.69 136.471 156.704 136.504C156.699 136.51 156.693 136.519 156.685 136.528C156.605 136.632 156.406 136.89 156.619 136.991C156.619 137.006 156.615 137.019 156.611 137.032C156.608 137.042 156.605 137.052 156.603 137.063C156.633 137.077 156.649 137.082 156.673 137.063C156.698 137.091 156.69 137.102 156.673 137.128L156.669 137.133L156.693 137.14C156.737 137.091 156.824 137.127 156.777 137.176C156.74 137.239 156.57 137.569 156.785 137.474C156.785 137.622 156.793 137.77 156.809 137.916C156.884 137.906 156.899 137.923 156.853 137.97C156.845 138.003 156.845 138.038 156.853 138.071C156.872 138.099 156.87 138.122 156.848 138.139C156.845 138.149 156.845 138.143 156.842 138.148C156.855 138.003 156.761 138.286 156.749 138.341C156.754 138.357 156.754 138.374 156.748 138.39C156.792 138.324 156.775 138.442 156.764 138.515C156.76 138.543 156.757 138.565 156.759 138.566C156.773 138.567 156.788 138.572 156.8 138.58C156.805 138.584 156.809 138.588 156.813 138.592C156.819 138.599 156.823 138.606 156.827 138.614C156.834 138.642 156.853 138.652 156.882 138.642C156.858 138.655 157.056 138.524 156.943 138.618C156.927 138.646 156.935 138.655 156.967 138.646C156.976 138.664 156.992 138.679 157.011 138.686C157.042 138.737 156.974 138.819 156.976 138.82C156.957 138.833 156.959 138.845 156.979 138.857V138.871L156.999 138.873C157.044 138.964 157.062 139.066 157.05 139.168C157.052 139.168 157.054 139.168 157.056 139.168C157.057 139.168 157.058 139.168 157.059 139.168C157.062 139.168 157.064 139.167 157.067 139.167C157.072 139.165 157.077 139.162 157.081 139.158C157.077 139.172 157.076 139.187 157.078 139.202C157.083 139.206 157.087 139.207 157.092 139.207C157.097 139.207 157.102 139.205 157.107 139.203C157.116 139.199 157.124 139.195 157.133 139.206C157.119 139.243 157.123 139.252 157.144 139.232C157.127 139.257 157.138 139.279 157.178 139.297C157.168 139.315 157.152 139.334 157.135 139.355C157.086 139.414 157.032 139.481 157.089 139.532C157.096 139.526 156.755 139.603 156.891 139.623C156.893 139.629 156.896 139.635 156.902 139.639C156.907 139.644 156.913 139.647 156.92 139.647C156.951 139.567 156.993 139.565 157.046 139.64L157.066 139.63L157.071 139.636C157.02 139.694 156.986 139.697 156.962 139.698C156.939 139.699 156.926 139.7 156.918 139.751L156.898 139.758C156.934 139.766 156.94 139.785 156.916 139.815C156.841 139.869 156.946 140.3 157.098 140.015C157.144 140.016 157.14 140.084 157.137 140.135V140.135C157.135 140.16 157.134 140.181 157.139 140.189C157.154 140.131 157.178 140.128 157.212 140.182C157.24 140.204 157.263 140.23 157.282 140.26C157.277 140.277 157.233 140.284 157.188 140.29L157.188 140.29C157.162 140.293 157.136 140.297 157.116 140.303C157.1 140.3 157.091 140.301 157.097 140.311C157.102 140.308 157.109 140.305 157.116 140.303C157.176 140.314 157.341 140.388 157.263 140.388C157.259 140.381 157.527 140.502 157.321 140.524C157.342 140.395 157.26 140.493 157.292 140.497C157.289 140.505 157.284 140.513 157.278 140.519C157.271 140.525 157.264 140.529 157.255 140.532C157.247 140.535 157.238 140.535 157.229 140.534C157.221 140.533 157.212 140.529 157.205 140.524C157.214 140.534 157.226 140.54 157.239 140.543C157.294 140.589 157.286 140.618 157.213 140.629C157.278 140.794 157.082 140.645 157.066 140.619L157.066 140.615C157.065 140.616 157.065 140.617 157.066 140.619C157.066 140.623 157.067 140.627 157.068 140.631C157.069 140.637 157.072 140.643 157.075 140.649L157.058 140.658C157.101 140.696 157.103 140.696 157.125 140.702C157.136 140.705 157.152 140.709 157.182 140.72C157.197 140.728 157.21 140.741 157.218 140.757C157.227 140.773 157.231 140.79 157.229 140.808C157.226 140.771 157.021 140.939 157.148 140.948C157.148 140.951 157.148 140.953 157.148 140.955C157.147 140.958 157.146 140.961 157.144 140.963C157.143 140.966 157.141 140.967 157.139 140.969C157.137 140.971 157.135 140.972 157.132 140.973C157.152 140.97 157.172 140.972 157.191 140.98C157.209 140.988 157.225 141.001 157.236 141.018L157.247 141.021C157.248 141.028 157.246 141.034 157.242 141.038C157.239 141.042 157.236 141.046 157.232 141.049C157.228 141.052 157.225 141.055 157.222 141.059C157.241 141.077 157.269 141.042 157.269 141.021C157.274 141.026 157.271 141.053 157.268 141.085C157.261 141.146 157.252 141.227 157.295 141.217C157.295 141.206 157.298 141.196 157.303 141.186C157.335 141.19 157.362 141.21 157.384 141.228C157.415 141.253 157.438 141.271 157.458 141.225C157.477 141.239 157.47 141.276 157.448 141.302C157.38 141.313 157.361 141.362 157.343 141.411C157.329 141.448 157.315 141.484 157.279 141.501C157.306 141.516 157.331 141.533 157.355 141.553C157.349 141.542 157.243 141.648 157.239 141.654C157.221 141.785 157.281 141.851 157.418 141.852C157.413 141.876 157.347 141.906 157.29 141.932C157.251 141.95 157.216 141.966 157.209 141.976C156.208 142.979 155.036 143.347 154.395 141.725L154.375 141.724C154.344 142.381 154.216 140.843 154.238 140.832C154.246 140.806 154.253 140.436 154.215 140.426C154.318 139.935 154.333 139.429 154.26 138.931C154.266 138.786 154.274 138.363 154.284 137.82C154.311 136.334 154.355 133.953 154.416 133.945C154.406 133.87 154.415 133.793 154.441 133.722C154.434 133.653 154.423 133.585 154.407 133.518C154.406 133.515 154.405 133.511 154.406 133.507C154.406 133.504 154.407 133.5 154.408 133.497C154.41 133.494 154.412 133.491 154.415 133.488C154.417 133.486 154.421 133.484 154.424 133.483L154.42 133.474L154.411 133.473C154.329 132.799 154.339 132.117 154.439 131.446C154.536 131.414 154.492 130.809 154.449 130.232V130.232V130.232C154.416 129.771 154.383 129.327 154.425 129.207C154.467 129.197 154.456 128.908 154.444 128.602C154.432 128.297 154.42 127.976 154.46 127.9L154.453 127.891C154.298 127.977 154.08 128.175 153.842 128.391C153.405 128.79 152.899 129.251 152.582 129.195C152.614 129.259 152.426 129.371 152.232 129.487C152.037 129.604 151.835 129.725 151.841 129.805C151.749 129.849 151.649 129.958 151.544 130.073C151.387 130.243 151.22 130.425 151.054 130.42L151.052 130.414C151.035 130.414 151.028 130.425 151.031 130.441C150.986 130.451 150.944 130.475 150.913 130.51C150.314 131.323 149.401 131.95 148.488 132.577L148.488 132.577C147.749 133.084 147.011 133.59 146.439 134.195L146.435 134.182C146.138 134.384 144.695 135.5 144.717 135.829C144.12 136.043 143.41 136.929 142.888 137.582L142.887 137.582C142.736 137.771 142.6 137.94 142.488 138.068L142.468 138.058C142.373 138.14 141.826 138.637 141.86 138.711C141.755 138.845 141.627 138.96 141.483 139.051C141.476 139.056 141.47 139.062 141.466 139.069C141.462 139.076 141.459 139.083 141.458 139.092C141.368 139.203 141.081 139.469 140.746 139.78C140.107 140.373 139.292 141.129 139.323 141.291C138.234 142.018 137.892 141.316 137.551 140.615L137.551 140.615C137.431 140.37 137.312 140.125 137.161 139.941C137.163 139.936 137.167 139.93 137.171 139.924C137.184 139.903 137.2 139.879 137.174 139.867C137.268 138.955 138.286 138.138 139.055 137.522L139.055 137.522C139.198 137.407 139.333 137.299 139.451 137.199C139.758 136.939 140.07 136.61 140.39 136.271C141.032 135.594 141.709 134.879 142.45 134.61C142.45 134.588 142.583 134.491 142.668 134.429L142.668 134.429C142.714 134.395 142.745 134.372 142.733 134.378C142.781 134.183 143.608 133.603 143.951 133.362L143.951 133.362C144.042 133.297 144.099 133.257 144.097 133.256C144.13 133.215 144.224 133.142 144.332 133.056C144.55 132.885 144.828 132.668 144.792 132.574C144.879 132.55 145.211 132.356 145.211 132.245C145.218 132.241 145.222 132.241 145.226 132.242C145.231 132.243 145.234 132.247 145.237 132.252C145.242 132.259 145.247 132.267 145.262 132.266C145.254 132.23 145.292 132.211 145.33 132.193C145.37 132.174 145.41 132.154 145.393 132.114C145.973 132.024 146.509 131.445 147.037 130.874C147.445 130.433 147.848 129.997 148.263 129.795C148.263 129.792 148.263 129.79 148.263 129.787C148.263 129.785 148.263 129.783 148.263 129.782C148.264 129.777 148.265 129.772 148.263 129.768C148.327 129.743 148.412 129.67 148.496 129.596L148.496 129.596C148.597 129.508 148.697 129.42 148.76 129.418C148.76 129.423 148.762 129.427 148.764 129.431C148.765 129.435 148.767 129.44 148.767 129.445C148.809 129.441 148.851 129.398 148.895 129.352C148.946 129.3 148.999 129.245 149.058 129.244C149.044 129.17 149.154 129.121 149.266 129.071C149.374 129.023 149.484 128.974 149.483 128.901C149.45 128.916 149.503 128.882 149.581 128.831C149.691 128.759 149.85 128.656 149.889 128.615L149.887 128.603C149.943 128.575 150.847 128.019 150.828 127.912C150.871 127.912 151.2 127.695 151.19 127.65C151.426 127.541 151.638 127.386 151.813 127.194C152.104 127.071 152.363 126.826 152.623 126.579C152.919 126.298 153.217 126.014 153.568 125.907L153.557 125.901C153.57 125.893 153.568 125.888 153.586 125.886C153.623 125.703 154.244 125.39 154.428 125.299V125.282C154.424 125.282 154.424 125.282 154.425 125.281C154.425 125.28 154.425 125.28 154.421 125.278C154.421 125.227 154.423 125.177 154.426 125.126C154.435 125.087 154.439 125.048 154.439 125.008C154.47 125.006 154.469 124.929 154.468 124.881C154.468 124.866 154.468 124.854 154.469 124.848C154.453 124.835 154.442 124.817 154.437 124.797C154.431 124.777 154.432 124.756 154.439 124.737C154.479 124.458 154.459 124.175 154.38 123.905L154.347 123.901C154.318 123.9 154.29 123.908 154.266 123.925C154.243 123.941 154.226 123.965 154.218 123.993C153.987 124.151 153.773 124.281 153.545 124.415C153.548 124.465 153.352 124.505 153.212 124.534C153.153 124.546 153.105 124.556 153.085 124.564C153.084 124.572 153.085 124.58 153.089 124.588C153.093 124.596 153.099 124.602 153.106 124.606C153.102 124.623 153.035 124.635 152.969 124.647C152.865 124.665 152.762 124.683 152.906 124.722C152.9 124.758 152.665 124.744 152.633 124.722C152.586 124.673 152.559 124.672 152.552 124.72C152.51 124.74 152.367 124.755 152.22 124.771C152.042 124.791 151.859 124.811 151.851 124.838L151.849 124.851C151.825 124.862 151.795 124.857 151.766 124.852C151.733 124.847 151.701 124.842 151.676 124.857L151.678 124.874C151.673 124.877 151.668 124.879 151.662 124.88C151.657 124.88 151.652 124.88 151.646 124.878L151.645 124.861C151.53 124.866 151.413 124.837 151.298 124.809C151.18 124.78 151.063 124.751 150.952 124.759C150.96 124.768 150.959 124.772 150.958 124.777C150.957 124.78 150.956 124.784 150.956 124.79C150.794 124.702 150.637 124.604 150.488 124.497L150.474 124.519C150.333 124.298 150.177 124.087 150.008 123.887C150.015 123.88 149.818 122.86 149.799 122.841C149.803 122.842 149.805 122.841 149.808 122.84C149.809 122.84 149.81 122.839 149.812 122.839L149.813 122.838C149.816 122.837 149.818 122.836 149.821 122.835C149.806 122.731 149.823 122.482 149.844 122.192L149.844 122.192C149.884 121.617 149.936 120.882 149.771 120.789C149.752 120.676 149.808 120.41 149.867 120.129L149.867 120.129C149.952 119.722 150.045 119.283 149.926 119.229C149.888 119.168 149.938 118.999 149.981 118.849C150.01 118.754 150.035 118.666 150.034 118.621C150.035 118.621 150.295 117.479 150.322 117.334C150.465 116.972 150.628 116.62 150.811 116.277L150.828 116.28C150.835 116.238 150.97 115.968 151.023 115.962C151.027 115.955 151.124 115.792 151.14 115.803C151.359 115.364 151.702 114.998 152.126 114.75C152.14 114.728 152.158 114.709 152.18 114.695C152.201 114.68 152.226 114.67 152.252 114.666C152.256 114.662 152.257 114.656 152.258 114.651C152.259 114.641 152.26 114.633 152.28 114.642C152.364 114.6 152.44 114.544 152.504 114.475C152.524 114.474 152.555 114.458 152.553 114.439C152.766 114.266 153.033 114.175 153.307 114.181C153.581 114.186 153.844 114.289 154.05 114.471L154.064 114.464C154.099 114.558 154.106 114.66 154.084 114.757C154.085 114.784 154.08 114.811 154.07 114.836C154.06 114.86 154.044 114.883 154.025 114.901C154.12 114.92 154.059 115.045 154.002 115.161C153.96 115.248 153.92 115.33 153.949 115.359C153.921 115.379 153.825 115.53 153.838 115.523C153.837 115.527 153.835 115.531 153.833 115.534C153.825 115.551 153.817 115.569 153.836 115.58C153.831 115.605 153.808 115.604 153.787 115.603C153.782 115.603 153.777 115.602 153.773 115.603C153.753 115.68 153.717 115.751 153.666 115.813C153.66 115.83 153.647 115.832 153.635 115.835C153.623 115.838 153.61 115.841 153.604 115.858C153.573 115.901 153.527 115.932 153.475 115.943L153.478 115.964L153.465 115.966L153.455 115.984C153.406 115.94 153.344 116.127 153.313 116.224C153.299 116.267 153.29 116.292 153.292 116.272C153.28 116.272 153.268 116.271 153.257 116.269C153.252 116.322 153.232 116.333 153.203 116.35C153.19 116.357 153.175 116.365 153.159 116.378L153.154 116.37C153.111 116.412 153.082 116.466 153.069 116.525C153.051 116.556 153.043 116.592 153.047 116.627L153.055 116.629C153.05 116.634 153.045 116.642 153.041 116.649C153.038 116.655 153.035 116.661 153.031 116.667C153.022 116.686 153.012 116.705 153 116.715C152.976 116.656 152.954 116.714 152.933 116.771C152.919 116.811 152.904 116.85 152.889 116.848C152.892 116.873 152.889 116.898 152.88 116.921C152.851 116.912 152.834 116.971 152.832 116.995C152.675 117.037 152.544 117.672 152.44 118.18C152.369 118.524 152.31 118.809 152.264 118.814C152.236 118.831 152.24 119.141 152.316 119.132C152.346 119.182 152.36 119.239 152.356 119.297C152.352 119.354 152.331 119.41 152.295 119.455C152.28 119.532 152.261 119.618 152.242 119.709C152.098 120.377 151.884 121.368 152.259 121.892C152.617 122.393 153.386 122.644 153.782 122.004L153.802 122.015C154.016 121.828 155.024 119.593 154.61 119.384C154.611 119.385 154.612 119.386 154.613 119.386C154.615 119.386 154.616 119.386 154.617 119.386C154.618 119.387 154.619 119.386 154.621 119.386C154.624 119.386 154.627 119.386 154.63 119.387C154.702 119.181 154.695 118.926 154.688 118.674C154.68 118.401 154.672 118.132 154.765 117.929C154.765 117.861 154.764 117.794 154.762 117.727C154.778 116.289 154.956 114.858 155.291 113.459C155.287 113.456 155.285 113.453 155.284 113.451C155.284 113.449 155.284 113.447 155.285 113.444C155.285 113.442 155.286 113.439 155.286 113.436C155.294 113.435 155.301 113.429 155.309 113.431C155.396 113.284 155.525 113.168 155.679 113.098C155.682 113.093 155.686 113.088 155.691 113.084C155.696 113.081 155.702 113.078 155.709 113.078C155.715 113.102 155.74 113.088 155.763 113.076C155.768 113.073 155.774 113.07 155.779 113.068C155.783 113.066 155.787 113.064 155.791 113.063C155.837 112.395 157.278 113.299 157.45 113.512C157.463 113.477 157.258 114.032 157.397 114.044C157.371 114.185 157.359 114.329 157.363 114.473C157.34 114.473 157.342 114.762 157.344 115.067V115.068V115.068C157.345 115.378 157.347 115.707 157.324 115.767C157.256 115.775 157.258 115.776 157.274 115.786C157.295 115.798 157.337 115.823 157.29 115.893C157.277 115.89 157.265 115.884 157.256 115.876C157.185 115.923 157.286 116.121 157.297 116.04C157.37 116.081 157.258 116.116 157.229 116.124L157.227 116.125C157.211 116.39 157.188 116.655 157.165 116.921L157.165 116.922C157.125 117.388 157.085 117.859 157.077 118.348C157.049 118.534 157.037 118.721 157.04 118.909V118.912C156.996 119.194 156.973 119.478 156.97 119.763C156.981 119.815 156.96 119.895 156.938 119.979C156.901 120.121 156.862 120.273 156.966 120.323C156.966 120.324 156.965 120.325 156.965 120.327C156.965 120.328 156.965 120.329 156.965 120.33C156.964 120.332 156.963 120.335 156.962 120.338C156.96 120.342 156.957 120.346 156.953 120.35C156.949 120.353 156.945 120.356 156.94 120.358C156.935 120.359 156.931 120.36 156.926 120.36C156.926 120.359 156.926 120.358 156.926 120.358C156.925 120.358 156.925 120.358 156.925 120.36L156.926 120.36C156.929 120.382 156.923 120.6 156.918 120.833V120.833C156.911 121.12 156.903 121.43 156.909 121.425C156.879 121.486 156.886 121.577 156.893 121.657C156.897 121.707 156.901 121.753 156.894 121.784C156.886 121.787 156.878 121.787 156.87 121.786C156.867 121.785 156.863 121.785 156.859 121.785C156.856 121.785 156.853 121.785 156.85 121.786C156.841 121.816 156.822 121.93 156.869 121.932C156.87 121.936 156.866 121.944 156.86 121.953C156.859 121.956 156.857 121.958 156.856 121.96C156.841 121.983 156.825 122.008 156.869 121.998C156.871 122.023 156.873 122.052 156.876 122.084C156.879 122.124 156.883 122.168 156.888 122.217C156.927 122.641 156.996 123.381 156.785 123.563C156.806 123.601 156.814 123.645 156.809 123.688C156.905 123.688 156.944 123.652 157.008 123.592L157.031 123.571C157.946 122.847 158.939 122.226 159.991 121.721L159.974 121.71C159.976 121.643 160.306 121.464 160.521 121.347C160.61 121.298 160.68 121.26 160.697 121.246V121.248C160.932 120.898 161.465 120.682 161.961 120.482C162.234 120.372 162.496 120.266 162.692 120.144C162.693 120.138 162.695 120.133 162.698 120.127C162.701 120.122 162.706 120.118 162.71 120.114C162.715 120.111 162.721 120.108 162.726 120.107C162.732 120.105 162.738 120.105 162.744 120.106C162.76 120.086 162.78 120.071 162.803 120.06C163.469 119.893 164.037 119.479 164.606 119.063C165.102 118.7 165.6 118.336 166.166 118.135C166.178 118.063 166.388 117.978 166.561 117.909C166.668 117.865 166.76 117.828 166.784 117.803L166.774 117.791C167.042 117.462 167.482 117.292 167.914 117.125C168.512 116.894 169.094 116.67 169.178 116.037C169.194 115.92 169.08 115.618 168.96 115.298C168.844 114.986 168.721 114.658 168.703 114.464C168.668 114.082 168.733 113.704 168.798 113.324C168.87 112.904 168.943 112.484 168.88 112.057C168.876 112.057 168.871 112.056 168.867 112.055C168.861 112.053 168.856 112.052 168.85 112.053C168.805 111.918 168.849 111.728 168.896 111.529C168.945 111.32 168.996 111.102 168.946 110.931C168.7 110.806 168.772 110.542 168.844 110.273C168.911 110.026 168.979 109.775 168.801 109.625C168.33 109.229 168.059 109.463 167.76 109.721C167.604 109.856 167.441 109.997 167.237 110.06C167.244 109.988 166.92 110.526 166.7 110.891C166.612 111.038 166.54 111.157 166.513 111.197C166.513 111.195 166.512 111.193 166.512 111.19C166.498 111.218 166.5 111.218 166.513 111.197C166.517 111.214 166.515 111.232 166.508 111.249C166.472 111.225 166.45 111.232 166.442 111.27C166.457 111.364 166.459 111.46 166.446 111.554C166.434 111.574 166.438 111.597 166.441 111.62C166.445 111.654 166.45 111.687 166.403 111.706C166.415 111.69 166.413 111.979 166.339 111.934C166.339 111.918 166.335 111.912 166.325 111.922C166.33 111.927 166.335 111.931 166.339 111.934C166.339 111.955 166.333 111.991 166.327 112.025C166.32 112.066 166.314 112.102 166.322 112.097C166.334 112.19 166.302 112.208 166.222 112.254L166.22 112.255C166.246 112.25 166.273 112.253 166.297 112.264C166.32 112.275 166.34 112.294 166.353 112.316C166.288 112.434 166.23 112.555 166.181 112.68C166.264 112.789 166.256 112.948 166.164 112.995C166.198 113.041 166.159 113.045 166.119 113.049C166.095 113.052 166.071 113.054 166.062 113.065C166.07 113.077 166.079 113.086 166.088 113.093C166.104 113.107 166.117 113.119 166.116 113.148C166.099 113.188 166.07 113.188 166.028 113.15C166.024 113.174 166.024 113.198 166.028 113.222L166.041 113.227C166.008 113.267 166.013 113.3 166.055 113.325C166.028 113.219 166.221 113.556 166.192 113.53C166.183 113.545 166.186 113.586 166.188 113.636C166.194 113.756 166.202 113.921 166.073 113.858C166.06 113.676 166.052 113.744 166.04 113.833V113.833C166.032 113.898 166.023 113.974 166.009 113.972C166.014 114.003 166.009 114.025 166.005 114.042C165.997 114.073 165.993 114.09 166.055 114.122C166.047 114.14 166.055 114.149 166.063 114.159C166.07 114.167 166.078 114.176 166.075 114.191C166.067 114.186 166.059 114.183 166.049 114.182C166.04 114.181 166.031 114.182 166.022 114.185C166.013 114.187 166.005 114.192 165.998 114.198C165.991 114.204 165.986 114.211 165.982 114.22C165.922 114.531 165.931 114.975 166.047 115.011L166.054 115.023L166.059 115.014C166.07 115.012 166.082 115.013 166.092 115.017C166.097 115.053 166.081 115.224 166.069 115.347V115.347C166.064 115.4 166.06 115.444 166.058 115.465C165.995 115.495 165.964 115.503 165.958 115.504C165.957 115.505 165.956 115.505 165.956 115.505C165.956 115.505 165.992 115.501 166.048 115.528C165.977 115.681 165.987 115.792 165.994 115.872C166 115.944 166.004 115.99 165.944 116.018C165.934 116.096 165.964 116.167 165.993 116.237C166.021 116.303 166.049 116.37 166.044 116.443C166.001 116.449 165.969 116.507 165.939 116.562C165.91 116.616 165.882 116.667 165.847 116.663C165.808 116.749 165.776 116.837 165.751 116.928C165.748 116.928 165.746 116.929 165.743 116.93C165.741 116.932 165.739 116.933 165.737 116.934C165.736 116.935 165.734 116.937 165.733 116.938C165.731 116.939 165.729 116.939 165.727 116.94C165.752 117.002 165.679 117.176 165.64 117.209L165.623 117.212C165.625 117.215 165.629 117.215 165.633 117.213C165.635 117.212 165.637 117.211 165.64 117.209C165.668 117.236 165.584 117.255 165.569 117.223L165.557 117.228C165.514 117.922 163.78 118.05 163.548 117.421C163.515 116.854 163.513 116.285 163.54 115.718C163.556 115.652 163.56 115.585 163.552 115.518L163.534 115.508C163.556 115.425 163.566 115.338 163.562 115.252L163.572 115.237L163.559 115.228C163.524 115.017 163.466 113.725 163.668 113.544C163.666 113.538 163.663 113.533 163.66 113.527C163.649 113.509 163.639 113.491 163.66 113.475C163.611 113.411 163.634 113.294 163.656 113.187C163.669 113.118 163.682 113.053 163.674 113.009C163.679 113.003 163.681 113.002 163.681 113.001C163.681 113 163.678 113 163.674 112.994C163.442 111.79 163.643 110.543 164.242 109.474C164.603 109.057 164.96 108.984 165.391 108.896C165.529 108.868 165.675 108.839 165.83 108.796C166.063 108.731 166.323 108.643 166.589 108.553C166.99 108.416 167.405 108.275 167.761 108.206L167.754 108.189C168.05 107.696 168.5 107.315 169.035 107.105C169.569 106.895 170.158 106.867 170.71 107.025C170.712 107.031 170.751 107.066 170.796 107.108L170.796 107.108C170.856 107.163 170.927 107.228 170.932 107.243L170.931 107.246C170.933 107.246 170.933 107.245 170.932 107.243C170.981 107.142 171.087 107.479 171.096 107.572C171.102 107.575 171.132 107.632 171.169 107.704C171.216 107.794 171.275 107.907 171.314 107.966C171.306 107.987 171.271 107.981 171.243 107.977C171.233 107.976 171.225 107.974 171.218 107.974C171.217 107.973 171.217 107.972 171.216 107.973C171.216 107.973 171.216 107.973 171.215 107.974L171.218 107.974C171.248 108.023 171.44 109.124 171.234 109.02C171.234 109.018 171.239 109.041 171.247 109.076C171.268 109.169 171.309 109.352 171.326 109.383C171.347 109.383 171.353 109.399 171.357 109.411C171.361 109.421 171.364 109.429 171.372 109.429C171.33 109.499 171.249 109.716 171.283 109.678C171.292 109.699 171.294 109.736 171.295 109.778C171.299 109.862 171.303 109.966 171.378 109.992C171.371 109.997 171.365 110.005 171.361 110.014C171.357 110.022 171.356 110.032 171.357 110.041C171.306 110.044 171.255 110.042 171.204 110.035C171.183 110.124 171.181 110.216 171.197 110.306C171.214 110.396 171.249 110.481 171.3 110.556C171.218 110.471 171.192 111.633 171.186 111.865V111.865L171.185 111.905C171.209 111.997 171.221 112.069 171.166 112.108C171.143 112.183 171.188 112.272 171.234 112.364C171.291 112.476 171.349 112.591 171.285 112.688C171.282 112.732 171.266 112.808 171.247 112.901C171.182 113.22 171.076 113.74 171.303 113.843C171.305 113.849 171.294 113.864 171.281 113.881C171.257 113.914 171.226 113.956 171.273 113.952C171.273 113.953 171.277 113.96 171.283 113.971L171.283 113.971C171.325 114.047 171.476 114.321 171.288 114.298C171.305 114.357 171.336 114.364 171.382 114.319C171.401 114.313 171.405 114.324 171.409 114.337C171.413 114.348 171.416 114.36 171.433 114.361C171.435 114.378 171.434 114.395 171.431 114.412C171.431 114.413 171.431 114.415 171.432 114.418C171.433 114.421 171.434 114.425 171.433 114.429L171.421 114.441C171.378 114.547 171.701 114.798 171.757 114.808L171.755 114.828C171.766 114.827 171.787 114.827 171.815 114.826C172.001 114.821 172.501 114.806 172.509 114.672C173.472 114.43 173.282 114.444 173.104 114.456C173.013 114.463 172.924 114.469 172.995 114.441C173.159 114.392 173.313 114.315 173.451 114.213C173.461 114.223 173.473 114.226 173.483 114.217C173.475 114.202 173.492 114.195 173.51 114.188C173.525 114.181 173.542 114.174 173.546 114.161C173.781 114.088 173.999 113.967 174.187 113.807L174.201 113.818C174.387 113.704 174.583 113.608 174.787 113.53C174.826 113.303 175.4 113.389 175.816 113.451C176.012 113.481 176.173 113.505 176.225 113.488C176.22 113.483 176.215 113.479 176.21 113.476C176.197 113.467 176.186 113.459 176.191 113.436C176.201 113.437 176.209 113.442 176.216 113.446C176.23 113.455 176.241 113.461 176.253 113.436C176.26 113.466 176.276 113.492 176.299 113.512C176.322 113.531 176.351 113.543 176.381 113.544C176.382 113.533 176.376 113.528 176.37 113.523C176.367 113.52 176.364 113.517 176.361 113.514C176.36 113.511 176.358 113.508 176.358 113.503C176.466 113.484 176.54 113.637 176.609 113.778C176.663 113.89 176.714 113.995 176.776 114C176.776 114.004 176.784 114.028 176.796 114.063C176.841 114.199 176.944 114.506 176.864 114.496C176.838 114.559 176.856 114.596 176.918 114.606C176.914 114.624 176.878 114.655 176.862 114.654ZM97.0895 87.2389C92.4493 87.2389 88.5207 89.7489 85.3035 94.7688L75.5591 109.922C75.5591 102.795 73.6721 97.1555 69.8981 93.0025C67.9505 90.9155 65.572 89.2774 62.9278 88.2018C60.2836 87.1263 57.4369 86.6391 54.5855 86.7741C51.6945 86.6306 48.8068 87.1175 46.1227 88.201C43.4386 89.2845 41.0221 90.9388 39.0409 93.049C35.236 97.2323 33.3335 102.887 33.3335 110.014V153.242H39.4586V110.107C39.1989 105.454 40.6329 100.864 43.4955 97.1858C44.8642 95.6072 46.5737 94.3601 48.4948 93.5388C50.416 92.7175 52.4986 92.3434 54.5855 92.4448C56.6724 92.3436 58.755 92.7177 60.6762 93.539C62.5973 94.3603 64.3068 95.6073 65.6756 97.1858C68.5382 100.864 69.9722 105.454 69.7125 110.107V117.916L59.1329 133.813C57.7085 135.796 56.5101 137.931 55.56 140.18C54.9157 141.857 54.5854 143.637 54.5856 145.433C54.5493 146.664 54.7746 147.889 55.2465 149.027C55.7184 150.164 56.4262 151.189 57.3232 152.033C59.3425 153.841 61.9946 154.776 64.7011 154.636C66.198 154.711 67.6936 154.463 69.0865 153.91C70.4794 153.356 71.7373 152.51 72.775 151.429C74.861 148.993 75.925 145.846 75.7447 142.644V119.682L90.0364 97.6507C92.0156 94.5526 94.3048 93.0032 96.9039 93.0025C97.6513 92.9697 98.3968 93.1027 99.0867 93.392C99.7766 93.6813 100.394 94.1197 100.894 94.6758C101.95 95.9866 102.48 97.6438 102.379 99.3239V153.242H108.504V99.138C108.674 95.9496 107.573 92.824 105.442 90.4461C104.352 89.3563 103.045 88.5076 101.606 87.9551C100.168 87.4026 98.6287 87.1586 97.0895 87.2389ZM69.8981 142.272C70.0034 144.126 69.5159 145.966 68.5061 147.524C68.0809 148.134 67.5101 148.628 66.8456 148.961C66.1811 149.293 65.4439 149.455 64.7011 149.43C64.1127 149.463 63.5238 149.373 62.9724 149.165C62.421 148.957 61.9193 148.635 61.4994 148.222C60.6843 147.304 60.267 146.1 60.3394 144.875C60.3371 143.648 60.5735 142.433 61.0354 141.296C61.7357 139.701 62.5579 138.163 63.4947 136.694L69.8981 126.748L69.8981 142.272ZM358.444 115.359C362.826 106.601 366.504 97.5091 369.445 88.1682H363.039C360.604 95.8183 357.673 103.302 354.267 110.572C351.201 117.28 347.681 123.772 343.73 130.001L321.451 88.1682H314.489L339.832 135.672L326.835 153.241H334.262L344.195 139.39C349.574 131.77 354.339 123.735 358.444 115.359ZM240.317 147.85H243.474L243.474 88.1682H249.6V153.241H235.676L209.59 97.7433C208.166 94.6445 206.495 93.0952 204.577 93.0952C204.045 93.0872 203.518 93.2002 203.035 93.4256C202.553 93.6511 202.128 93.9831 201.793 94.3966C201.024 95.3384 200.628 96.529 200.679 97.7433V153.241H194.552V97.5574C194.499 96.191 194.723 94.8281 195.209 93.5502C195.696 92.2723 196.435 91.1058 197.383 90.1204C198.348 89.1573 199.502 88.4042 200.772 87.9082C202.042 87.4123 203.401 87.1843 204.763 87.2386C209.528 87.2386 213.056 89.7486 215.346 94.7685L240.317 147.85ZM304.742 123.122H268.681V147.478H307.713V153.241H262.554V88.1682H307.434V93.9318H268.681V117.451H304.742V123.122Z" fill="#1C2024"/>
</svg>
