<svg width="400" height="240" viewBox="0 0 400 240" fill="none" xmlns="http://www.w3.org/2000/svg">
<path fill-rule="evenodd" clip-rule="evenodd" d="M63.162 86.3332C63.6773 87.9917 64.5369 89.5002 65.6749 90.7431C67.7838 86.3273 68.9446 81.4533 69.0707 76.4844C66.1231 83.4668 60.9343 87.8032 54.7675 92.6541C47.6363 98.0342 40.8447 103.458 40.8447 113.586C40.8447 121.304 46.6855 125.846 48.2204 126.816C48.7726 124.127 49.5548 121.499 50.5567 118.967C46.1286 111.617 46.7398 101.327 46.7398 101.327C47.825 106.192 49.662 110.824 52.1731 115.027C53.7447 111.642 55.5188 108.372 57.4842 105.237C55.9655 101.54 55.2321 97.5215 55.338 93.4773C56.1127 96.6724 57.405 99.6934 59.1549 102.4C61.1124 99.3305 62.9258 96.1563 64.5882 92.8893C63.162 90.6549 63.162 86.3332 63.162 86.3332ZM69.5979 67.2572C69.5988 67.246 69.5996 67.2348 69.6004 67.2236H69.5868C69.5905 67.2348 69.5942 67.246 69.5979 67.2572ZM53.6835 90.8914C61.0864 85.2982 68.6757 79.5641 69.5979 67.2572C72.0059 74.5578 73.8202 82.072 75.0202 89.7142L73.363 90.993C66.6257 96.2114 60.3638 102.18 60.1736 113.616C60.2116 116.175 60.72 118.701 61.6692 121.045C62.6183 123.39 63.9892 125.507 65.702 127.272L66.2997 127.889C63.9289 129.609 61.2125 130.69 58.3771 131.043C55.5417 131.396 52.6694 131.01 49.9998 129.918C49.3502 135.608 49.6167 141.378 50.7876 146.969L47.3239 147.161C46.6864 141.094 46.9017 134.959 47.9623 128.962C46.4387 128.122 45.0418 127.037 43.8194 125.743C42.3012 124.178 41.084 122.303 40.2378 120.227C39.3916 118.151 38.9331 115.914 38.8887 113.645C39.0787 101.926 46.288 96.479 53.6835 90.8914ZM98.3427 89.8906C90.641 95.6675 83.9172 101.753 83.7135 113.631C83.7808 116.31 84.3514 118.948 85.3906 121.381C86.4297 123.815 87.9157 125.994 89.758 127.786C86.339 130.298 82.2276 131.465 78.1095 131.094C73.9914 130.722 70.1155 128.833 67.1283 125.743C65.6112 124.18 64.3945 122.308 63.5483 120.234C62.7021 118.161 62.2431 115.926 62.1976 113.66C62.3944 101.933 69.6045 96.4821 76.9988 90.8923C84.4063 85.2925 91.9985 79.553 92.9094 67.2236C95.3293 74.5929 97.1473 82.1776 98.3427 89.8906ZM95.0554 151.232C96.3194 151.143 97.5886 151.232 98.8315 151.496C99.1919 151.634 99.5878 151.612 99.9335 151.436C100.279 151.26 100.547 150.944 100.679 150.556C100.733 150.385 100.761 150.206 100.76 150.026L100.855 148.189C98.8737 147.532 96.8154 147.186 94.743 147.16C85.5199 147.16 81.4042 154.142 81.4042 161.022C81.4042 167.901 85.4792 174.898 94.743 174.898C96.8172 174.883 98.8776 174.531 100.855 173.855L100.652 170.018C98.859 170.709 96.9534 170.989 95.0554 170.841C89.9481 170.665 86.7153 167.049 86.7153 161.022C86.7153 154.995 89.9481 151.379 95.0554 151.217V151.232ZM61.9803 169.005L61.8308 172.901L61.8444 172.886C64.1303 174.125 66.6376 174.812 69.193 174.9C74.6534 174.9 79.7743 172.813 79.7743 167.153C79.7743 161.524 75.3237 159.536 71.7337 157.932C69.3705 156.876 67.3802 155.987 67.2777 154.335C67.1011 151.483 70.6464 151.175 72.127 151.175C73.4031 151.131 74.6796 151.249 75.9303 151.527H76.2563C76.6365 151.544 77.0077 151.4 77.2916 151.125C77.5754 150.851 77.7497 150.468 77.7776 150.058L77.8727 148.205C75.9933 147.592 74.0481 147.246 72.0862 147.176C67.5358 147.176 61.8988 149.146 61.8988 155.026C61.8988 159.877 65.8727 161.632 69.2898 163.141C71.8058 164.252 74.02 165.23 74.1237 167.212C74.3546 170.828 70.3747 170.828 68.9213 170.828C66.5206 170.711 64.1635 170.092 61.9803 169.005ZM254.428 161.361C254.428 167.388 257.348 170.857 262.469 170.857C267.549 170.857 270.443 167.388 270.443 161.361C270.443 155.334 267.59 151.865 262.469 151.865C257.348 151.865 254.428 155.334 254.428 161.361ZM249.117 161.361C249.117 154.467 253.233 147.499 262.469 147.499C271.692 147.499 275.767 154.658 275.767 161.361C275.767 168.064 271.747 175.237 262.469 175.237C253.192 175.237 249.117 168.255 249.117 161.361ZM246.795 152.817C247.196 153.811 247.413 154.881 247.432 155.966L247.446 155.907C247.446 161.831 242.502 165.124 237.381 164.08C236.24 163.845 235.099 163.33 235.167 162.228C235.235 161.125 235.955 160.758 237.748 160.758C241.252 160.758 242.121 158.656 242.121 156.157C242.142 155.912 242.142 155.666 242.121 155.422C241.998 154.269 241.46 153.215 240.624 152.488C239.787 151.762 238.719 151.421 237.653 151.541H233.578V174.855H228.443V147.866H239.649C240.652 147.845 241.648 148.037 242.582 148.433C243.516 148.828 244.369 149.419 245.091 150.171C245.814 150.923 246.393 151.822 246.795 152.817ZM357.357 159.835C356.418 161.13 355.096 162.037 353.613 162.403C356.167 163.991 357.566 166.505 359.331 170.738L361.111 174.854H357.104C356.554 174.925 355.999 174.776 355.543 174.435C355.088 174.094 354.764 173.584 354.632 173.002C354.306 172.135 353.273 169.489 353.273 169.489L353.19 169.276C352.021 166.287 351.073 163.864 348.764 163.462C346.862 163.138 346.441 162.256 346.441 161.551C346.441 160.331 347.419 159.611 349.158 159.611C351.82 159.611 353.464 158.038 353.464 155.539C353.464 154.054 352.893 151.54 349.008 151.54H344.933V174.854H339.812V147.939H350.896C356.058 147.939 358.775 151.614 358.775 155.289C358.797 156.935 358.297 158.54 357.357 159.835ZM322.738 162.757H334.746V159.082H322.738V151.541H335.357V147.881H317.604V174.87H335.615V171.18H322.738V162.757ZM312.292 147.881C312.045 147.84 311.793 147.851 311.55 147.915C311.307 147.979 311.078 148.094 310.876 148.253C310.674 148.413 310.504 148.614 310.374 148.846C310.244 149.077 310.157 149.334 310.119 149.601V149.734L304.482 169.446L298.845 147.881H294.172C293.683 147.792 293.18 147.917 292.775 148.228C292.37 148.54 292.096 149.012 292.013 149.542L286.579 169.46L281.241 147.778H275.563L282.871 174.796H289.473L295.273 153.511L300.828 174.796H307.335L314.941 147.778L312.292 147.881ZM106.792 161.036C106.792 167.063 109.712 170.532 114.833 170.532C119.899 170.532 122.806 167.063 122.806 161.036C122.806 155.01 119.954 151.555 114.833 151.555C109.712 151.555 106.792 155.01 106.792 161.036ZM101.467 161.036C101.467 154.142 105.583 147.16 114.833 147.16C124.056 147.16 128.131 154.333 128.131 161.036C128.131 167.74 124.124 174.913 114.833 174.913C105.542 174.913 101.467 167.931 101.467 161.036ZM174.735 147.867H169.6V174.841H174.735V147.867ZM127.791 147.867H146.278V151.542H139.799V174.841H134.678V151.542H127.791V147.867ZM166.558 147.867H148.085V151.542H154.958V174.841H160.092V151.542H166.558V147.867ZM217.631 159.053V147.867H222.765V174.841H217.631V162.728H205.786V174.841H200.665V147.867H205.786V159.053H217.631ZM179.231 172.901L179.435 169.005C181.618 170.092 183.975 170.711 186.376 170.828C187.829 170.828 191.809 170.828 191.592 167.212C191.482 165.23 189.254 164.253 186.723 163.142C183.284 161.633 179.285 159.878 179.285 155.026C179.285 149.146 184.909 147.176 189.473 147.176C191.435 147.246 193.38 147.592 195.259 148.205L195.096 150.058C195.068 150.468 194.894 150.851 194.61 151.125C194.326 151.4 193.955 151.544 193.575 151.527H193.249C192.003 151.248 190.731 151.13 189.459 151.175C187.979 151.175 184.433 151.483 184.596 154.335C184.704 155.986 186.696 156.875 189.06 157.93C192.653 159.535 197.107 161.523 197.107 167.153C197.107 172.813 191.999 174.9 186.525 174.9C183.97 174.812 181.463 174.125 179.177 172.886L179.231 172.901ZM116.463 67.2236C115.552 79.553 107.959 85.2925 100.552 90.8923C93.1577 96.4821 85.9476 101.933 85.7508 113.66C85.7988 115.927 86.2603 118.162 87.1088 120.235C87.9573 122.309 89.1761 124.181 90.6951 125.743C103.069 138.973 136.973 131.256 116.503 67.2236H116.463Z" fill="#1C2024"/>
</svg>
